<svg width="228" height="55" viewBox="0 0 228 55" fill="none" xmlns="http://www.w3.org/2000/svg">
<path d="M77.9908 33.419C78.4993 34.7979 77.7935 36.3281 76.4146 36.8365C75.0357 37.345 73.5056 36.6393 72.9971 35.2603C71.2433 30.468 70.961 25.3791 72.0201 20.5823C73.08 15.7819 75.4757 11.2864 79.0771 7.68499C84.2004 2.56166 90.9157 0 97.631 0C104.346 0 111.062 2.56166 116.185 7.68499C121.308 12.8083 123.87 19.5236 123.87 26.2389C123.87 32.9542 121.308 39.6695 116.185 44.7929C112.46 48.5179 107.795 50.9474 102.836 51.9507C97.8865 52.9524 92.643 52.5244 87.7524 50.5363C86.3938 49.9831 85.7408 48.4332 86.294 47.0746C86.8473 45.716 88.3972 45.063 89.7558 45.6162C93.6448 47.1973 97.8236 47.5357 101.776 46.736C105.719 45.938 109.437 43.9986 112.414 41.0218C116.496 36.9395 118.537 31.589 118.537 26.2389C118.537 20.8888 116.496 15.5384 112.414 11.4561C108.332 7.37379 102.981 5.33258 97.631 5.33258C92.2809 5.33258 86.9305 7.37379 82.8482 11.4561C79.9613 14.3429 78.0459 17.9238 77.2053 21.7313C76.3638 25.5426 76.5912 29.5944 77.9908 33.419H77.9908Z" fill="#ED3237"/>
<path d="M86.8726 26.2387C86.8726 27.7112 85.6788 28.905 84.2063 28.905C82.7338 28.905 81.54 27.7112 81.54 26.2387C81.54 24.1196 81.9676 22.0272 82.7758 20.0761C83.5805 18.1333 84.7556 16.3561 86.2538 14.8579C89.3963 11.7154 93.5154 10.144 97.6346 10.144C101.754 10.144 105.873 11.7154 109.015 14.8579C112.158 18.0003 113.729 22.1195 113.729 26.2387C113.729 30.3576 112.158 34.4769 109.015 37.6194C107.517 39.1177 105.74 40.2928 103.797 41.0975C101.846 41.9057 99.7537 42.3333 97.6346 42.3333C96.1621 42.3333 94.9683 41.1395 94.9683 39.667C94.9683 38.1945 96.1621 37.0007 97.6346 37.0007C99.0765 37.0007 100.473 36.7209 101.75 36.1922C103.034 35.6599 104.224 34.8684 105.244 33.8484C107.346 31.7469 108.397 28.9925 108.397 26.2387C108.397 23.4847 107.346 20.7304 105.244 18.629C103.143 16.5275 100.389 15.4766 97.6346 15.4766C94.8807 15.4766 92.1264 16.5275 90.0249 18.629C89.0049 19.649 88.2133 20.8389 87.681 22.1237C87.1524 23.4001 86.8726 24.7968 86.8726 26.2387V26.2387Z" fill="#ED3237"/>
<path fill-rule="evenodd" clip-rule="evenodd" d="M100.447 23.2459C102.345 25.1505 102.791 27.8116 100.687 29.9081L98.3835 32.2025L98.7039 33.4065C98.8032 33.7803 98.5789 34.1674 98.2052 34.2667L98.2051 34.2669C97.8312 34.3663 97.4442 34.1417 97.3448 33.7681L97.2332 33.3487L89.7839 40.7707C87.6796 42.8671 85.5166 41.917 83.6191 40.0124C81.7215 38.1078 80.7791 35.9413 82.8834 33.8448L90.3327 26.4229L89.9139 26.3098C89.5404 26.2089 89.3174 25.821 89.4181 25.4476H89.4183C89.5191 25.0741 89.9069 24.8512 90.2803 24.9519L91.4832 25.2766L93.7861 22.9822C95.8904 20.8856 98.5497 21.3412 100.447 23.2459L100.447 23.2459ZM74.4946 50.1487L82.1863 42.5128C82.6499 42.0525 83.4043 42.0508 83.8663 42.5128C84.3283 42.9749 84.3298 43.7326 83.8663 44.1928L76.1744 51.8287C75.7109 52.2889 74.9566 52.2907 74.4946 51.8287C74.0324 51.3667 74.0308 50.6091 74.4946 50.1487ZM65.8979 52.9732L76.8767 41.9944C77.3387 41.5322 78.0947 41.5322 78.5567 41.9944C79.0187 42.4564 79.0187 43.2122 78.5567 43.6742L67.5779 54.6532C67.1158 55.1152 66.3599 55.1152 65.8979 54.6532C65.4359 54.1912 65.4359 53.4352 65.8979 52.9732V52.9732ZM90.2998 28.4218C91.6844 29.2377 94.1729 31.6913 95.2074 33.3814C96.155 32.807 98.0372 32.0535 97.9707 30.9056C97.9062 29.7918 96.9963 28.6252 96.0199 27.6425C95.0589 26.6754 93.8827 25.7134 92.7648 25.665C91.6964 25.6185 90.8891 27.4253 90.2998 28.4218H90.2998Z" fill="#282829"/>
<path d="M12.265 19.3494L15.3442 25.5079H9.18569L12.265 19.3494ZM1.43841 35.2371C2.07173 35.5537 2.72689 35.5974 3.40389 35.3681C4.08089 35.1497 4.57772 34.7184 4.89438 34.0742L6.5978 30.6673H17.9157L19.6355 34.0742C19.8539 34.5219 20.176 34.8767 20.6019 35.1388C21.0168 35.3899 21.4645 35.5155 21.945 35.5155C22.349 35.5155 22.7312 35.4227 23.0915 35.2371C23.7248 34.9204 24.1561 34.4236 24.3854 33.7466C24.6147 33.0696 24.5656 32.4144 24.238 31.7811L14.5744 12.4211C14.356 11.9843 14.0393 11.6349 13.6244 11.3728C13.2095 11.1217 12.7563 10.9961 12.265 10.9961C11.7736 10.9961 11.3204 11.1217 10.9055 11.3728C10.4906 11.6349 10.1739 11.9843 9.95551 12.4211L0.275495 31.7811C-0.041166 32.4144 -0.0848434 33.0696 0.144463 33.7466C0.36285 34.4236 0.794165 34.9204 1.43841 35.2371Z" fill="#282829"/>
<path d="M32.1904 25.835H40.904C41.5265 25.835 42.056 26.0589 42.4928 26.5066C42.9405 26.9433 43.1644 27.4729 43.1644 28.0953C43.1644 28.7177 42.9405 29.2528 42.4928 29.7005C42.056 30.1372 41.5265 30.3556 40.904 30.3556H32.1904V25.835ZM32.1904 16.155H37.6774C38.2998 16.155 38.8294 16.3789 39.2661 16.8265C39.7138 17.2633 39.9377 17.7929 39.9377 18.4153C39.9377 19.0377 39.7138 19.5728 39.2661 20.0205C38.8294 20.4572 38.2998 20.6756 37.6774 20.6756H32.1904V16.155ZM40.904 35.515C42.946 35.515 44.6931 34.7889 46.1453 33.3366C47.5976 31.8843 48.3238 30.1372 48.3238 28.0953C48.3238 26.7086 47.958 25.4201 47.2264 24.2299C46.5275 23.0833 45.583 22.1934 44.3928 21.5601C44.8623 20.5664 45.0971 19.5182 45.0971 18.4153C45.0971 16.3734 44.3709 14.6263 42.9187 13.174C41.4664 11.7217 39.7193 10.9956 37.6774 10.9956H29.6189C28.8982 10.9956 28.2867 11.2522 27.7844 11.7654C27.2822 12.2677 27.031 12.8737 27.031 13.5835V32.9271C27.031 33.6478 27.2822 34.2593 27.7844 34.7616C28.2867 35.2639 28.8982 35.515 29.6189 35.515H40.904Z" fill="#282829"/>
<path d="M55.2964 16.155V32.9271C55.2964 33.6478 55.5475 34.2593 56.0498 34.7616C56.563 35.2639 57.1745 35.515 57.8843 35.515C58.594 35.515 59.2001 35.2639 59.7024 34.7616C60.2047 34.2593 60.4558 33.6478 60.4558 32.9271V16.155H65.9428C66.6525 16.155 67.264 15.9039 67.7772 15.4016C68.2795 14.8993 68.5307 14.2933 68.5307 13.5835C68.5307 12.8737 68.2795 12.2677 67.7772 11.7654C67.264 11.2522 66.6525 10.9956 65.9428 10.9956H49.8258C49.1051 10.9956 48.4936 11.2522 47.9914 11.7654C47.4891 12.2677 47.2379 12.8737 47.2379 13.5835C47.2379 14.2933 47.4891 14.8993 47.9914 15.4016C48.4936 15.9039 49.1051 16.155 49.8258 16.155H55.2964Z" fill="#282829"/>
<path d="M150.692 13.6308C150.692 12.9256 150.442 12.3235 149.943 11.8244C149.433 11.3145 148.826 11.0596 148.121 11.0596C147.415 11.0596 146.813 11.3145 146.314 11.8244C145.815 12.3235 145.566 12.9256 145.566 13.6308V30.2948H134.662V13.6308C134.662 12.9256 134.413 12.3235 133.914 11.8244C133.415 11.3145 132.813 11.0596 132.107 11.0596C131.391 11.0596 130.784 11.3145 130.285 11.8244C129.786 12.3235 129.536 12.9256 129.536 13.6308V32.866C129.536 33.5712 129.786 34.1733 130.285 34.6724C130.784 35.1714 131.391 35.4209 132.107 35.4209H147.16V36.0556C147.16 36.7716 147.41 37.3792 147.909 37.8782C148.408 38.3773 149.016 38.6268 149.732 38.6268C150.437 38.6268 151.039 38.3773 151.538 37.8782C152.037 37.3792 152.287 36.7716 152.287 36.0556V32.866C152.287 32.3344 152.14 31.8516 151.847 31.4177C151.554 30.9837 151.169 30.6745 150.692 30.4901V13.6308Z" fill="#282829"/>
<path d="M174.406 35.4372C175.111 35.4372 175.719 35.1877 176.229 34.6886C176.728 34.1896 176.977 33.582 176.977 32.866C176.977 32.1608 176.728 31.5587 176.229 31.0597C175.719 30.5606 175.111 30.3111 174.406 30.3111H160.948V25.8196H171.2C171.905 25.8196 172.513 25.5701 173.023 25.071C173.522 24.572 173.771 23.9698 173.771 23.2647C173.771 22.5486 173.522 21.9411 173.023 21.442C172.513 20.943 171.905 20.6935 171.2 20.6935H160.948V16.202H174.406C175.111 16.202 175.719 15.9525 176.229 15.4534C176.728 14.9544 176.977 14.3522 176.977 13.647C176.977 12.9419 176.728 12.3397 176.229 11.8407C175.719 11.3308 175.111 11.0758 174.406 11.0758H158.393C157.677 11.0758 157.069 11.3308 156.57 11.8407C156.071 12.3397 155.822 12.9419 155.822 13.647V32.866C155.822 33.582 156.071 34.1896 156.57 34.6886C157.069 35.1877 157.677 35.4372 158.393 35.4372H174.406Z" fill="#282829"/>
<path d="M198.379 34.0051C198.694 34.6344 199.188 35.0629 199.86 35.2907C200.533 35.5077 201.184 35.4589 201.813 35.1443C202.442 34.8297 202.871 34.336 203.099 33.6634C203.326 32.9908 203.278 32.3398 202.952 31.7106L193.351 12.4916C193.134 12.0577 192.819 11.7159 192.407 11.4664C191.995 11.206 191.544 11.0758 191.056 11.0758C190.568 11.0758 190.118 11.206 189.706 11.4664C189.293 11.7159 188.979 12.0577 188.762 12.4916L179.144 31.7269C178.829 32.3561 178.786 33.007 179.014 33.6797C179.231 34.3523 179.659 34.8459 180.3 35.1606C180.658 35.345 181.037 35.4372 181.439 35.4372C181.916 35.4372 182.361 35.3124 182.773 35.0629C183.196 34.8134 183.516 34.4662 183.733 34.0214L191.056 19.3753L198.379 34.0051Z" fill="#282829"/>
<path d="M211.548 30.3111V22.6137H218.595C219.658 22.6137 220.564 22.9934 221.312 23.7529C222.072 24.5014 222.451 25.4073 222.451 26.4705C222.451 27.5229 222.072 28.4288 221.312 29.1882C220.564 29.9368 219.658 30.3111 218.595 30.3111H211.548ZM211.548 17.4876V13.647C211.548 12.9419 211.299 12.3397 210.8 11.8407C210.3 11.3308 209.698 11.0758 208.993 11.0758C208.277 11.0758 207.67 11.3308 207.171 11.8407C206.672 12.3397 206.422 12.9419 206.422 13.647V32.866C206.422 33.582 206.672 34.1896 207.171 34.6886C207.67 35.1877 208.277 35.4372 208.993 35.4372H218.595C221.068 35.4372 223.184 34.5584 224.941 32.8009C226.699 31.0542 227.577 28.9441 227.577 26.4705C227.577 23.997 226.699 21.8814 224.941 20.1239C223.184 18.3664 221.068 17.4876 218.595 17.4876H211.548Z" fill="#282829"/>
<path d="M135.582 44.0823L136.705 46.3296H134.458L135.582 44.0823ZM131.631 49.8798C131.862 49.9954 132.101 50.0113 132.348 49.9276C132.595 49.8479 132.777 49.6905 132.892 49.4554L133.514 48.2123H137.644L138.271 49.4554C138.351 49.6188 138.468 49.7483 138.624 49.8439C138.775 49.9356 138.939 49.9814 139.114 49.9814C139.261 49.9814 139.401 49.9475 139.532 49.8798C139.763 49.7642 139.921 49.583 140.004 49.3359C140.088 49.0889 140.07 48.8498 139.951 48.6187L136.424 41.5542C136.345 41.3948 136.229 41.2673 136.078 41.1716C135.926 41.08 135.761 41.0342 135.582 41.0342C135.402 41.0342 135.237 41.08 135.086 41.1716C134.934 41.2673 134.819 41.3948 134.739 41.5542L131.207 48.6187C131.091 48.8498 131.075 49.0889 131.159 49.3359C131.238 49.583 131.396 49.7642 131.631 49.8798Z" fill="#282829"/>
<path d="M143.108 46.4491H146.287C146.514 46.4491 146.708 46.5308 146.867 46.6942C147.03 46.8536 147.112 47.0468 147.112 47.2739C147.112 47.501 147.03 47.6963 146.867 47.8597C146.708 48.019 146.514 48.0987 146.287 48.0987H143.108V46.4491ZM143.108 42.9169H145.11C145.337 42.9169 145.53 42.9985 145.69 43.1619C145.853 43.3213 145.935 43.5145 145.935 43.7417C145.935 43.9688 145.853 44.164 145.69 44.3274C145.53 44.4868 145.337 44.5665 145.11 44.5665H143.108V42.9169ZM146.287 49.9814C147.032 49.9814 147.67 49.7164 148.2 49.1865C148.73 48.6566 148.995 48.019 148.995 47.2739C148.995 46.7679 148.861 46.2977 148.594 45.8634C148.339 45.445 147.995 45.1203 147.56 44.8892C147.732 44.5266 147.817 44.1441 147.817 43.7417C147.817 42.9966 147.552 42.359 147.022 41.8291C146.493 41.2991 145.855 41.0342 145.11 41.0342H142.169C141.906 41.0342 141.683 41.1278 141.5 41.3151C141.317 41.4984 141.225 41.7195 141.225 41.9785V49.0371C141.225 49.3001 141.317 49.5232 141.5 49.7065C141.683 49.8898 141.906 49.9814 142.169 49.9814H146.287Z" fill="#282829"/>
<path d="M152.63 42.9169V49.0371C152.63 49.3001 152.721 49.5232 152.905 49.7065C153.092 49.8898 153.315 49.9814 153.574 49.9814C153.833 49.9814 154.054 49.8898 154.237 49.7065C154.421 49.5232 154.512 49.3001 154.512 49.0371V42.9169H156.515C156.773 42.9169 156.997 42.8252 157.184 42.6419C157.367 42.4586 157.459 42.2375 157.459 41.9785C157.459 41.7195 157.367 41.4984 157.184 41.3151C156.997 41.1278 156.773 41.0342 156.515 41.0342H150.633C150.37 41.0342 150.147 41.1278 149.964 41.3151C149.781 41.4984 149.689 41.7195 149.689 41.9785C149.689 42.2375 149.781 42.4586 149.964 42.6419C150.147 42.8252 150.37 42.9169 150.633 42.9169H152.63Z" fill="#282829"/>
<path d="M165.234 45.5108C165.234 46.224 164.981 46.8336 164.475 47.3397C163.965 47.8457 163.353 48.0987 162.64 48.0987C161.927 48.0987 161.317 47.8457 160.811 47.3397C160.305 46.8336 160.052 46.224 160.052 45.5108C160.052 44.7976 160.305 44.1879 160.811 43.6819C161.317 43.1719 161.927 42.9169 162.64 42.9169C163.353 42.9169 163.965 43.1719 164.475 43.6819C164.981 44.1879 165.234 44.7976 165.234 45.5108ZM158.17 45.5108C158.17 46.742 158.606 47.7959 159.478 48.6725C160.355 49.5451 161.409 49.9814 162.64 49.9814C163.875 49.9814 164.929 49.5451 165.802 48.6725C166.678 47.7959 167.117 46.742 167.117 45.5108C167.117 44.2756 166.678 43.2217 165.802 42.3491C164.929 41.4725 163.875 41.0342 162.64 41.0342C161.409 41.0342 160.355 41.4725 159.478 42.3491C158.606 43.2217 158.17 44.2756 158.17 45.5108Z" fill="#282829"/>
<path d="M173.591 46.4491C173.818 46.4491 174.012 46.5308 174.171 46.6942C174.334 46.8536 174.416 47.0468 174.416 47.2739C174.416 47.501 174.334 47.6963 174.171 47.8597C174.012 48.019 173.818 48.0987 173.591 48.0987H170.412V46.4491H173.591ZM174.177 42.9169C174.436 42.9169 174.659 42.8252 174.846 42.6419C175.03 42.4586 175.121 42.2375 175.121 41.9785C175.121 41.7195 175.03 41.4984 174.846 41.3151C174.659 41.1278 174.436 41.0342 174.177 41.0342H169.473C169.21 41.0342 168.987 41.1278 168.804 41.3151C168.621 41.4984 168.529 41.7195 168.529 41.9785V49.0371C168.529 49.3001 168.621 49.5232 168.804 49.7065C168.987 49.8898 169.21 49.9814 169.473 49.9814H173.591C174.336 49.9814 174.974 49.7164 175.504 49.1865C176.034 48.6566 176.299 48.019 176.299 47.2739C176.299 46.5288 176.034 45.8913 175.504 45.3614C174.974 44.8314 174.336 44.5665 173.591 44.5665H170.412V42.9169H174.177Z" fill="#282829"/>
<path d="M183.591 44.3334C183.591 44.7199 183.452 45.0526 183.173 45.3315C182.898 45.6064 182.565 45.7439 182.175 45.7439H179.587V42.9169H182.175C182.565 42.9169 182.898 43.0563 183.173 43.3352C183.452 43.6102 183.591 43.9429 183.591 44.3334ZM178.649 49.9814C178.908 49.9814 179.129 49.8898 179.312 49.7065C179.495 49.5232 179.587 49.3001 179.587 49.0371V47.6266H182.175C183.083 47.6266 183.86 47.3038 184.506 46.6583C185.151 46.0168 185.474 45.2418 185.474 44.3334C185.474 43.4249 185.151 42.6479 184.506 42.0024C183.86 41.3569 183.083 41.0342 182.175 41.0342H178.649C178.386 41.0342 178.163 41.1278 177.979 41.3151C177.796 41.4984 177.704 41.7195 177.704 41.9785V49.0371C177.704 49.3001 177.796 49.5232 177.979 49.7065C178.163 49.8898 178.386 49.9814 178.649 49.9814Z" fill="#282829"/>
<path d="M193.472 45.5108C193.472 46.224 193.219 46.8336 192.713 47.3397C192.203 47.8457 191.591 48.0987 190.878 48.0987C190.165 48.0987 189.555 47.8457 189.049 47.3397C188.543 46.8336 188.29 46.224 188.29 45.5108C188.29 44.7976 188.543 44.1879 189.049 43.6819C189.555 43.1719 190.165 42.9169 190.878 42.9169C191.591 42.9169 192.203 43.1719 192.713 43.6819C193.219 44.1879 193.472 44.7976 193.472 45.5108ZM186.407 45.5108C186.407 46.742 186.844 47.7959 187.716 48.6725C188.593 49.5451 189.647 49.9814 190.878 49.9814C192.113 49.9814 193.167 49.5451 194.04 48.6725C194.916 47.7959 195.355 46.742 195.355 45.5108C195.355 44.2756 194.916 43.2217 194.04 42.3491C193.167 41.4725 192.113 41.0342 190.878 41.0342C189.647 41.0342 188.593 41.4725 187.716 42.3491C186.844 43.2217 186.407 44.2756 186.407 45.5108Z" fill="#282829"/>
<path d="M204.118 41.1956C203.899 41.0521 203.662 41.0043 203.407 41.0521C203.152 41.1039 202.953 41.2394 202.809 41.4585L200.736 44.5665H198.65V41.9785C198.65 41.7195 198.558 41.4984 198.375 41.3151C198.191 41.1278 197.97 41.0342 197.711 41.0342C197.448 41.0342 197.225 41.1278 197.042 41.3151C196.859 41.4984 196.767 41.7195 196.767 41.9785V49.0371C196.767 49.3001 196.859 49.5232 197.042 49.7065C197.225 49.8898 197.448 49.9814 197.711 49.9814C197.97 49.9814 198.191 49.8898 198.375 49.7065C198.558 49.5232 198.65 49.3001 198.65 49.0371V46.4491H200.736L202.809 49.563C202.997 49.8419 203.258 49.9814 203.592 49.9814C203.784 49.9814 203.959 49.9296 204.118 49.826C204.334 49.6786 204.467 49.4774 204.519 49.2224C204.567 48.9673 204.519 48.7323 204.375 48.5171L202.373 45.5108L204.375 42.4985C204.519 42.2833 204.567 42.0482 204.519 41.7932C204.467 41.5382 204.334 41.339 204.118 41.1956Z" fill="#282829"/>
<path d="M212.768 49.9814C213.027 49.9814 213.25 49.8898 213.437 49.7065C213.62 49.5232 213.712 49.3001 213.712 49.0371C213.712 48.7781 213.62 48.5569 213.437 48.3737C213.25 48.1904 213.027 48.0987 212.768 48.0987H207.825V46.4491H211.59C211.849 46.4491 212.072 46.3575 212.26 46.1742C212.443 45.9909 212.535 45.7698 212.535 45.5108C212.535 45.2478 212.443 45.0247 212.26 44.8414C212.072 44.6581 211.849 44.5665 211.59 44.5665H207.825V42.9169H212.768C213.027 42.9169 213.25 42.8252 213.437 42.6419C213.62 42.4586 213.712 42.2375 213.712 41.9785C213.712 41.7195 213.62 41.4984 213.437 41.3151C213.25 41.1278 213.027 41.0342 212.768 41.0342H206.887C206.624 41.0342 206.4 41.1278 206.217 41.3151C206.034 41.4984 205.942 41.7195 205.942 41.9785V49.0371C205.942 49.3001 206.034 49.5232 206.217 49.7065C206.4 49.8898 206.624 49.9814 206.887 49.9814H212.768Z" fill="#282829"/>
<path d="M221.005 44.3334C221.005 44.7199 220.865 45.0526 220.586 45.3315C220.311 45.6064 219.979 45.7439 219.588 45.7439H217V42.9169H219.588C219.979 42.9169 220.311 43.0563 220.586 43.3352C220.865 43.6102 221.005 43.9429 221.005 44.3334ZM216.062 49.9814C216.321 49.9814 216.542 49.8898 216.725 49.7065C216.909 49.5232 217 49.3001 217 49.0371V47.6266H219.588C220.497 47.6266 221.274 47.3038 221.919 46.6583C222.565 46.0168 222.887 45.2418 222.887 44.3334C222.887 43.4249 222.565 42.6479 221.919 42.0024C221.274 41.3569 220.497 41.0342 219.588 41.0342H216.062C215.799 41.0342 215.576 41.1278 215.392 41.3151C215.209 41.4984 215.117 41.7195 215.117 41.9785V49.0371C215.117 49.3001 215.209 49.5232 215.392 49.7065C215.576 49.8898 215.799 49.9814 216.062 49.9814Z" fill="#282829"/>
</svg>
