<svg width="42" height="40" viewBox="0 0 42 40" fill="none" xmlns="http://www.w3.org/2000/svg">
<path d="M8.85487 35.9103C9.01538 34.5059 9.17589 33.1415 9.37653 31.8173C9.41665 31.376 9.41665 30.9747 9.09564 30.6536C9.01538 30.5735 8.97525 30.5333 8.93513 30.453C8.45361 29.4098 7.61095 29.0887 6.52753 29.0887C5.4441 29.0887 4.32056 28.9282 3.23713 28.8078C2.71548 28.7677 2.51485 28.6072 2.39447 28.0454C1.91295 25.9989 1.47155 23.8723 1.07029 21.7856C0.90978 21.0232 0.990033 20.9029 1.67219 20.5418C2.91612 19.9398 4.11992 19.338 5.36385 18.6959C5.52435 18.6157 5.68486 18.3749 5.76511 18.1743C5.92562 17.5322 6.046 16.8501 6.12626 16.2081C6.16639 16.0074 6.08613 15.7265 5.96575 15.566C5.12309 14.4023 4.2403 13.2386 3.35751 12.0749C2.99637 11.5935 2.99637 11.433 3.35751 10.9514C4.8422 9.10561 6.32689 7.25977 7.81158 5.37382C8.09247 5.0528 8.37336 5.01267 8.77463 5.17318C10.1791 5.73496 11.5835 6.29673 12.9879 6.85851C13.2688 6.97889 13.5096 6.93876 13.7905 6.81838C15.0344 6.37698 15.6764 5.57445 15.8771 4.29039C16.0375 3.40761 16.3585 2.56495 16.6395 1.72228C16.7598 1.12038 16.9204 1 17.5623 1C19.8496 1 22.1369 1 24.4241 1C25.0259 1 25.1865 1.12038 25.3871 1.72228C25.7884 3.00634 26.1495 4.33052 26.5508 5.61458C26.631 5.81521 26.7916 6.05597 26.9922 6.17635C27.3934 6.41711 27.8348 6.61775 28.2361 6.85851C28.517 7.01902 28.7177 7.01902 28.9985 6.89864C30.3628 6.33686 31.7673 5.77509 33.1717 5.21331C33.7335 4.97254 33.894 5.0528 34.2952 5.53432C35.6997 7.2999 37.1443 9.06548 38.5487 10.8311C39.0703 11.4731 39.0703 11.5935 38.5888 12.2355C37.7461 13.3189 36.9436 14.4424 36.1009 15.5259C35.9003 15.7667 35.8602 16.0074 35.9003 16.2883C36.0207 16.9303 36.101 17.5723 36.2614 18.2144C36.3016 18.415 36.4621 18.6157 36.6226 18.6959C37.8665 19.338 39.1105 19.98 40.3945 20.5818C40.9964 20.9029 41.0767 21.0634 40.9563 21.7055C40.5149 23.792 40.0735 25.8786 39.6722 27.9651C39.5519 28.6072 39.3512 28.7677 38.7092 28.8078C37.2646 28.9282 35.82 29.0486 34.3755 29.2091C34.1748 29.2492 33.9341 29.4098 33.7736 29.5702C33.5328 29.811 33.4124 30.132 33.1717 30.3728C32.6901 30.8944 32.5698 31.4562 32.6901 32.1784C32.8908 33.2619 32.9711 34.3855 33.1315 35.509C33.2118 36.2313 33.1717 36.3517 32.4896 36.6727C30.5635 37.5956 28.6775 38.5185 26.7514 39.4013C26.0692 39.7223 25.9489 39.6822 25.4272 39.1605C24.5444 38.2376 23.6617 37.2746 22.7789 36.3517C22.6183 36.1912 22.3375 36.0707 22.1369 36.0707C21.4546 36.0307 20.7324 36.0307 20.0101 36.0707C19.7694 36.0707 19.5286 36.1912 19.3681 36.3517C18.4452 37.3147 17.5222 38.2778 16.5994 39.2408C16.2784 39.6019 15.9172 39.642 15.4758 39.4415C13.4695 38.4784 11.4631 37.5154 9.45678 36.5523C9.05551 36.4319 8.85487 36.2313 8.85487 35.9103ZM24.1833 2.40444C24.103 2.40444 24.103 2.36431 24.063 2.36431C22.0566 2.36431 20.0904 2.36431 18.084 2.36431C17.8032 2.36431 17.763 2.52482 17.7229 2.72545C17.3618 3.96938 17.0006 5.21331 16.5994 6.45724C16.5191 6.73813 16.2784 7.01902 16.0375 7.17952C15.3554 7.58079 14.6331 7.94193 13.951 8.30307C13.63 8.5037 13.3089 8.5037 12.9076 8.34319C11.5835 7.78142 10.2593 7.2999 8.93513 6.73813C8.65425 6.61775 8.53387 6.65787 8.33323 6.89864C7.16955 8.34319 6.00588 9.82789 4.80207 11.2724C4.60144 11.5132 4.60144 11.6336 4.80207 11.8744C5.60461 12.9176 6.40715 14.001 7.20968 15.0444C7.49057 15.3654 7.5307 15.7265 7.45044 16.1278C7.28993 17.0507 7.0893 17.9335 6.96892 18.8564C6.88866 19.2978 6.68803 19.5385 6.32689 19.7392C5.16322 20.301 3.95941 20.943 2.79574 21.5048C2.47472 21.6653 2.39447 21.8258 2.47472 22.1468C2.83587 23.8321 3.19701 25.5175 3.51802 27.2027C3.55814 27.4837 3.67852 27.5639 3.95941 27.604C5.36385 27.7244 6.76828 27.8448 8.17272 27.9651C8.57399 28.0053 8.85487 28.1257 9.09564 28.4467C9.57716 29.1288 10.0988 29.7709 10.5402 30.453C10.7007 30.6938 10.781 31.0549 10.7408 31.3359C10.6204 32.5797 10.46 33.7835 10.2994 35.0275C10.2593 35.3886 10.3396 35.6294 10.7007 35.7899C12.2255 36.5121 13.7503 37.2344 15.2751 37.9568C15.6363 38.1574 15.8369 38.0771 16.1178 37.7962C16.9204 36.9134 17.763 36.0707 18.5656 35.188C18.8464 34.867 19.1674 34.7466 19.6088 34.7466C20.5318 34.7466 21.4948 34.7466 22.4177 34.7466C22.819 34.7466 23.0999 34.867 23.3807 35.1479C24.2635 36.0707 25.1464 36.9937 26.0292 37.9166C26.2298 38.1172 26.3502 38.1574 26.5909 38.037C28.196 37.2344 29.8412 36.472 31.4463 35.7096C31.687 35.5893 31.7271 35.4689 31.687 35.2282C31.5265 33.9842 31.366 32.7804 31.2456 31.5364C31.2055 31.2154 31.2456 30.8142 31.4062 30.5735C31.8475 29.8512 32.4093 29.169 32.931 28.4467C33.1315 28.1257 33.4124 28.0053 33.8137 27.9651C35.2182 27.8448 36.5824 27.7244 37.9869 27.604C38.2678 27.5639 38.4283 27.4837 38.5085 27.2027C38.8697 25.4773 39.2308 23.7518 39.5519 22.0264C39.5919 21.906 39.4716 21.6653 39.3512 21.6252C38.1072 20.9831 36.8634 20.3411 35.6194 19.7794C35.2985 19.6188 35.0978 19.4181 35.0576 19.057C34.8972 18.0539 34.6965 17.0507 34.5761 16.0475C34.536 15.7667 34.6162 15.4055 34.7768 15.2048C35.499 14.2017 36.2614 13.2386 36.9837 12.2756C37.1443 12.0749 37.3047 11.8342 37.4653 11.6336C36.1812 10.0285 34.8972 8.46357 33.6532 6.89864C33.4927 6.698 33.3322 6.73813 33.1717 6.81838C31.8475 7.34002 30.4832 7.86168 29.159 8.42345C28.7577 8.58396 28.4367 8.58395 28.0354 8.34319C27.4336 7.98206 26.7916 7.66104 26.1495 7.38015C25.7081 7.17952 25.4674 6.89864 25.3469 6.41711C24.9858 5.01267 24.5845 3.6885 24.1833 2.40444Z" fill="#252423" stroke="#030303" stroke-width="0.3"/>
<path d="M21.0127 16.4889C21.2134 16.0475 21.4542 15.6864 21.5746 15.3253C21.6949 15.0043 21.9357 14.8438 22.2968 14.8438C22.7784 14.8438 23.2598 14.8438 23.7414 14.8438C25.1057 14.924 26.2293 16.0475 26.2694 17.4119C26.3095 19.2978 26.3095 21.1838 26.2694 23.0697C26.2694 24.5945 25.5872 25.2366 23.9822 25.1965C23.9822 25.3569 23.9421 25.5175 23.9421 25.7181C23.9421 27.2028 23.9421 28.6474 23.9421 30.132C23.9421 31.2556 23.4605 31.8976 22.5376 32.1384C22.0561 32.2588 21.6147 32.1384 21.2134 31.9377C21.093 31.8976 20.8924 31.8575 20.772 31.9377C19.6485 32.6601 17.9631 31.8174 17.9631 30.2525C17.9631 28.7678 17.9631 27.2429 17.9631 25.7582C17.9631 25.5978 17.9631 25.3971 17.9631 25.2366C17.6421 25.1965 17.3613 25.2366 17.0803 25.1563C16.2778 24.9557 15.716 24.2735 15.6759 23.3907C15.6759 21.3443 15.6358 19.338 15.6759 17.2915C15.6759 16.0877 16.8396 14.9641 18.0835 14.8838C18.6051 14.8437 19.1268 14.8838 19.6485 14.8438C19.9695 14.8438 20.2102 15.0043 20.3708 15.2851C20.5713 15.6462 20.772 16.0475 21.0127 16.4889ZM19.3675 24.7551C19.3275 24.7551 19.3275 24.7551 19.3675 24.7551C19.3275 26.5206 19.3275 28.2862 19.3275 30.0518C19.3275 30.5735 19.4879 30.8543 19.8491 30.8142C20.3306 30.774 20.2905 30.4129 20.2905 30.0919C20.2905 28.3665 20.2905 26.641 20.2905 24.9156C20.2905 24.2334 20.5312 23.8723 21.0127 23.8723C21.4943 23.8723 21.6949 24.1933 21.6949 24.9156C21.6949 26.6812 21.6949 28.4868 21.6949 30.2525C21.6949 30.5735 21.7752 30.774 22.1363 30.8142C22.4573 30.8142 22.6178 30.6136 22.6178 30.2926C22.6178 30.0116 22.6178 29.7709 22.6178 29.4901C22.6178 26.1595 22.5777 22.829 22.5777 19.4984C22.5777 18.8966 22.8586 18.4953 23.3401 18.5354C23.7414 18.5354 24.0222 18.9367 24.0222 19.5386C24.0222 19.6188 24.0222 19.6991 24.0222 19.7794C24.0222 20.9832 24.0222 22.187 24.0222 23.3507C24.0222 23.6717 24.1426 23.8723 24.4636 23.8723C24.7846 23.8723 24.9452 23.6717 24.9452 23.3507C24.9452 21.3845 24.9452 19.4182 24.9452 17.452C24.9452 16.8501 24.4636 16.3285 23.9019 16.2081C23.621 16.1679 23.3401 16.2081 23.0592 16.1679C22.7784 16.1278 22.658 16.2482 22.5376 16.4889C22.2968 17.0507 21.9758 17.5723 21.735 18.1342C21.5746 18.4551 21.414 18.696 21.0529 18.696C20.6917 18.696 20.4912 18.4551 20.3708 18.1743C20.1701 17.773 19.9293 17.4119 19.8089 17.0106C19.6083 16.3285 19.1669 16.1278 18.4848 16.2081C17.6823 16.2883 17.1204 16.8099 17.1204 17.6125C17.1204 18.2546 17.1204 18.8564 17.1204 19.4984C17.1204 20.7424 17.1204 22.0265 17.1204 23.2704C17.1204 23.5513 17.2007 23.792 17.5217 23.8723C17.8427 23.9525 18.0434 23.792 18.0434 23.3907C18.0434 22.0666 18.0434 20.7424 18.0434 19.3781C18.0434 18.696 18.5651 18.2947 19.0867 18.5756C19.4077 18.736 19.4879 19.0571 19.4879 19.4182C19.3675 21.1838 19.3675 22.9894 19.3675 24.7551Z" fill="#252423" stroke="#030303" stroke-width="0.3"/>
<path d="M10.9003 19.7797C10.9404 17.4122 11.9837 15.0448 13.99 13.0385C14.3512 12.6773 14.7524 12.6773 15.0334 12.9582C15.3143 13.2391 15.3143 13.6403 14.9531 14.0015C13.5486 15.3658 12.6258 17.011 12.3449 18.9371C11.9035 21.7861 12.706 24.274 14.6723 26.3605C14.7926 26.4809 14.913 26.6013 15.0334 26.7216C15.3143 27.0427 15.3143 27.444 15.0334 27.6847C14.7926 27.9254 14.3512 27.9656 14.0703 27.6446C13.4685 26.9624 12.8264 26.2402 12.3449 25.4778C11.3417 23.9128 10.9003 22.1472 10.9003 19.7797Z" fill="#252423" stroke="#030303" stroke-width="0.3"/>
<path d="M31.0447 20.6616C31.0046 23.2297 29.9613 25.6373 27.9148 27.6035C27.5938 27.9245 27.1926 27.9245 26.9117 27.6838C26.6308 27.4029 26.6308 26.9615 26.9518 26.6405C28.3964 25.236 29.3193 23.5507 29.6002 21.5444C30.0015 18.7355 29.1989 16.2878 27.2728 14.2012C27.1524 14.0808 27.0722 14.0005 26.9518 13.8801C26.6709 13.5591 26.6308 13.1579 26.9117 12.877C27.1926 12.6363 27.5537 12.6363 27.8747 12.9171C28.7575 13.7598 29.5199 14.7629 30.0416 15.8865C30.7237 17.4113 31.0447 18.7757 31.0447 20.6616Z" fill="#252423" stroke="#030303" stroke-width="0.3"/>
<path d="M17.762 10.9108C17.762 9.10516 19.2066 7.62047 21.0122 7.58035C22.7377 7.54022 24.383 9.10516 24.3027 10.8306C24.2224 12.6363 22.8982 14.0407 21.0925 14.0809C19.2467 14.121 17.762 12.6765 17.762 10.9108ZM22.858 10.8306C22.858 9.70707 22.0556 8.90452 21.0122 8.90452C19.9288 8.90452 19.0862 9.78732 19.0862 10.8708C19.0862 11.914 19.969 12.7567 21.0524 12.7567C22.0956 12.7166 22.8982 11.914 22.858 10.8306Z" fill="#252423" stroke="#030303" stroke-width="0.3"/>
</svg>
