<svg width="40" height="41" viewBox="0 0 40 41" fill="none" xmlns="http://www.w3.org/2000/svg">
<path d="M19.8624 25.3418C18.7404 25.3418 17.8277 24.4291 17.8277 23.3072C17.8277 22.1852 18.7404 21.2725 19.8624 21.2725C20.9843 21.2725 21.8972 22.1852 21.8972 23.3072C21.8972 24.4291 20.9843 25.3418 19.8624 25.3418ZM19.8624 23.0858C19.7405 23.0858 19.6412 23.1851 19.6412 23.3071C19.6412 23.4289 19.7405 23.5281 19.8624 23.5281C19.9843 23.5281 20.0836 23.4289 20.0836 23.3071C20.0836 23.1851 19.9844 23.0858 19.8624 23.0858Z" fill="#383838"/>
<path d="M19.8611 26.4706C19.3602 26.4706 18.9543 26.0646 18.9543 25.5638V24.4358C18.9543 23.9352 19.3602 23.5291 19.8611 23.5291C20.3618 23.5291 20.7678 23.9352 20.7678 24.4358V25.5638C20.7678 26.0646 20.3618 26.4706 19.8611 26.4706Z" fill="#383838"/>
<path d="M23.9968 18.9499H15.7253C15.2246 18.9499 14.8185 18.5439 14.8185 18.0431V16.9151C14.8185 14.1346 17.0806 11.8726 19.8611 11.8726C21.0488 11.8726 22.2026 12.2942 23.1103 13.06C24.2498 14.0213 24.9035 15.4264 24.9035 16.9151V18.0431C24.9036 18.5439 24.4976 18.9499 23.9968 18.9499ZM16.6322 17.1363H23.0901V16.9151C23.0901 15.9621 22.6713 15.0622 21.9412 14.4462C21.36 13.956 20.6215 13.6862 19.8612 13.6862C18.0806 13.6862 16.6322 15.1347 16.6322 16.9151V17.1363Z" fill="#383838"/>
<path d="M19.8616 29.1018C16.0446 29.1018 12.9392 25.9964 12.9392 22.1793V18.0435C12.9392 17.5427 13.3452 17.1367 13.8459 17.1367H25.8773C26.3781 17.1367 26.7841 17.5427 26.7841 18.0435V22.1793C26.7841 24.8309 25.3067 27.2095 22.9285 28.3865C21.9693 28.8611 20.9374 29.1018 19.8616 29.1018ZM14.7527 18.9504V22.1794C14.7527 24.9965 17.0445 27.2883 19.8616 27.2883C20.656 27.2883 21.4171 27.111 22.124 26.7613C23.8798 25.8922 24.9706 24.1367 24.9706 22.1795V18.9505H14.7527V18.9504Z" fill="#383838"/>
<path d="M24.0052 40.8897H15.7611C15.5173 40.8897 15.284 40.7916 15.1134 40.6176C14.3731 39.862 13.6784 39.1581 13.0264 38.4976C7.96278 33.3672 5.42115 30.792 4.11486 26.9161C2.82781 23.0969 2.83523 18.1981 2.84996 8.4384C2.85156 7.33221 2.85327 6.16279 2.85327 4.92454C2.85327 4.65531 2.9729 4.4 3.17991 4.22776C3.38682 4.05552 3.65976 3.98388 3.92439 4.03287C5.35652 4.2966 6.77462 4.43036 8.13923 4.43036C12.1526 4.43026 15.9352 3.27146 19.3821 0.986041C19.7172 0.763601 20.1591 0.788851 20.4671 1.04816C23.135 3.29461 26.6148 4.38667 31.1053 4.38657C32.5673 4.38657 34.1554 4.26553 35.8258 4.02696C36.0862 3.98979 36.3496 4.06744 36.5482 4.23958C36.7468 4.41182 36.8608 4.66182 36.8608 4.92464C36.8608 6.61338 36.8651 8.1397 36.8692 9.61572C36.8948 18.6946 36.9076 23.2517 35.7231 26.8183C34.5199 30.4413 32.1776 32.8535 27.5111 37.659C26.6608 38.5347 25.697 39.5271 24.6602 40.6101C24.4892 40.7887 24.2526 40.8897 24.0052 40.8897ZM16.1419 39.0761H23.6183C24.5574 38.0972 25.4312 37.1975 26.2099 36.3955C30.684 31.7882 32.9297 29.4757 34.0021 26.2465C35.0932 22.9608 35.0808 18.5026 35.0557 9.62064C35.0524 8.44972 35.0491 7.24723 35.0478 5.95668C33.668 6.1182 32.3458 6.19996 31.1053 6.19996C26.5202 6.20006 22.7292 5.07594 19.8251 2.85725C16.2266 5.10489 12.2989 6.24365 8.13933 6.24375C7.00719 6.24375 5.84308 6.15898 4.66646 5.99115C4.66585 6.84083 4.66455 7.65675 4.66345 8.4409C4.64912 18.0018 4.64191 22.8008 5.83346 26.3368C7.00609 29.816 9.44932 32.2915 14.3172 37.2236C14.8916 37.8057 15.4993 38.4213 16.1419 39.0761Z" fill="#383838"/>
<path d="M22.9448 35.4493C22.7194 35.4493 22.4935 35.3658 22.3179 35.1976C21.9562 34.8513 21.9436 34.2774 22.2899 33.9155C22.8917 33.2869 23.4505 32.7085 23.9695 32.1713C27.2447 28.781 28.8889 27.0793 29.6602 24.8387C30.4472 22.5532 30.4346 19.4805 30.4096 13.3588C30.4061 12.479 30.4021 11.5106 30.4004 10.4734C25.9219 10.9539 22.4456 10.2377 19.8208 8.29322C16.3326 10.4226 12.442 11.1106 8.24684 10.3379C7.75426 10.2472 7.42861 9.77435 7.51939 9.28188C7.61007 8.7894 8.08311 8.46376 8.57539 8.55434C12.5177 9.28047 16.1517 8.56476 19.3762 6.42693C19.7116 6.20449 20.1535 6.22984 20.4613 6.48905C22.9142 8.55464 26.4194 9.22817 31.1781 8.54843C31.4386 8.51115 31.7019 8.58891 31.9005 8.76115C32.099 8.93329 32.2131 9.18328 32.2131 9.4462C32.2131 10.8711 32.2185 12.1889 32.2231 13.3514C32.275 26.0641 32.21 26.2518 25.2737 33.4315C24.7565 33.9667 24.1996 34.5434 23.5999 35.1696C23.4219 35.3557 23.1835 35.4493 22.9448 35.4493Z" fill="#383838"/>
<path d="M38.3599 40.8898H1.18218C0.681393 40.8898 0.275391 40.4837 0.275391 39.983C0.275391 39.4823 0.681393 39.0762 1.18218 39.0762H38.3599C38.8606 39.0762 39.2666 39.4823 39.2666 39.983C39.2666 40.4837 38.8606 40.8898 38.3599 40.8898Z" fill="#383838"/>
<path d="M33.8262 37.2621H27.4788C26.9781 37.2621 26.572 36.856 26.572 36.3553C26.572 35.8546 26.9781 35.4485 27.4788 35.4485H33.8262C34.327 35.4485 34.733 35.8546 34.733 36.3553C34.733 36.856 34.327 37.2621 33.8262 37.2621Z" fill="#383838"/>
<path d="M12.0626 37.2621H5.71527C5.21448 37.2621 4.80847 36.856 4.80847 36.3553C4.80847 35.8546 5.21448 35.4485 5.71527 35.4485H12.0626C12.5634 35.4485 12.9694 35.8546 12.9694 36.3553C12.9694 36.856 12.5634 37.2621 12.0626 37.2621Z" fill="#383838"/>
</svg>
