<svg width="45" height="37" viewBox="0 0 45 37" fill="none" xmlns="http://www.w3.org/2000/svg">
<path fill-rule="evenodd" clip-rule="evenodd" d="M42.2885 25.4815C42.6731 25.3106 43.0578 25.1397 43.4424 24.9687C43.7143 24.8366 43.9591 24.6657 44.165 24.4404C44.5884 23.9742 44.8021 23.3409 44.7477 22.7154C44.7283 22.5095 44.6856 22.3075 44.6117 22.1133C44.5068 21.8297 44.3437 21.5771 44.1378 21.3557C37.3818 14.3861 30.4976 7.54073 23.5474 0.765338C23.4114 0.637134 23.2638 0.520586 23.1045 0.419576C22.817 0.240868 22.4985 0.116547 22.1644 0.0505029C22.0128 0.023308 21.8574 0.00776995 21.702 0C21.636 0 21.636 0 21.57 0C21.4146 0.00776995 21.2592 0.023308 21.1076 0.0505029C20.7735 0.116547 20.455 0.240868 20.1675 0.419576C20.0082 0.520586 19.8645 0.637134 19.7246 0.765338C18.0385 2.40868 16.3757 4.07145 14.7324 5.75753C14.511 5.9984 14.3284 6.26258 14.1963 6.56172C13.8855 7.28433 13.8933 8.12348 14.2235 8.83832C14.2351 8.86163 14.2507 8.88494 14.2623 8.91213L13.7534 9.42106C13.6446 9.53372 13.5397 9.64639 13.4426 9.76294C13.2017 10.0621 12.9919 10.3884 12.8288 10.7342C12.5646 11.2936 12.4131 11.8997 12.382 12.5135C12.3431 13.3216 12.5141 14.1374 12.8793 14.8639C13.0347 15.1708 13.225 15.4622 13.4426 15.7303C13.5397 15.8507 13.6446 15.9634 13.7534 16.0721L14.8179 17.1366C14.7285 17.5795 14.6974 18.0302 14.7169 18.4808C14.7285 18.6673 14.7441 18.8538 14.7713 19.0364L10.0471 23.609C9.9228 23.6168 9.80237 23.6284 9.68194 23.6478C9.6392 23.6517 9.60035 23.6595 9.55762 23.6673L4.69363 20.9128C4.68586 20.0348 4.68197 19.1607 4.68197 18.2827C4.68197 18.1389 4.66643 17.9952 4.63147 17.8515C4.52658 17.428 4.27794 17.0473 3.92829 16.7909C3.78843 16.686 3.63691 16.6083 3.47375 16.5422C2.73949 16.2819 1.99357 16.0488 1.25542 15.8002C1.18161 15.7808 1.11557 15.7652 1.04175 15.7575C0.967939 15.7536 0.967939 15.7536 0.894124 15.7536C0.831965 15.7613 0.812541 15.7613 0.750382 15.773C0.606637 15.8041 0.47066 15.8701 0.357996 15.9595C0.0899329 16.177 -0.0460387 16.5306 0.0161209 16.8724C0.0316608 16.9696 0.0627413 17.0628 0.109361 17.1483C0.155981 17.2337 0.214254 17.3153 0.280299 17.3814C0.389078 17.4863 0.513396 17.5562 0.653255 17.6106L2.77834 18.3177V29.1062L0.653255 29.8133C0.513396 29.8677 0.389078 29.9376 0.280299 30.0425C0.194829 30.128 0.124899 30.229 0.0782797 30.3416C0.03943 30.431 0.0161199 30.5281 0.004465 30.6253C-0.0343847 31.0215 0.183174 31.41 0.544476 31.581C0.69599 31.6548 0.870815 31.6858 1.04175 31.6664C1.11557 31.6625 1.1855 31.6431 1.25542 31.6237L3.41159 30.905C3.55145 30.8545 3.68353 30.7962 3.80397 30.7185C4.17304 30.4854 4.45664 30.128 4.59262 29.7123C4.64312 29.5491 4.67032 29.3782 4.68197 29.2072C4.68974 28.8576 4.69363 28.5118 4.69751 28.1661L7.51412 29.755C7.57239 29.825 7.63455 29.8871 7.7006 29.9493C8.02305 30.2562 8.39989 30.5048 8.80782 30.6758C9.25847 30.87 9.74798 30.9671 10.2414 30.9671C10.7309 30.9671 11.2204 30.87 11.6749 30.6758C12.0828 30.5048 12.4597 30.2562 12.7821 29.9493C13.0424 29.7006 13.2678 29.4131 13.4426 29.0985L19.0797 23.644C19.5148 23.7411 19.9577 23.7838 20.4045 23.7722C20.7191 23.7644 21.0377 23.7294 21.3485 23.6673L33.019 35.3416C33.1549 35.4698 33.2987 35.5786 33.4657 35.6679C33.9475 35.9205 34.5341 35.9477 35.0392 35.7418C35.179 35.6874 35.3111 35.6097 35.4315 35.5242C35.7462 35.835 36.0687 36.1458 36.3834 36.4605C36.5154 36.5887 36.6631 36.7014 36.8262 36.7868C37.308 37.0393 37.8946 37.0704 38.3997 36.8645C38.6056 36.7829 38.7843 36.6625 38.9513 36.5188C40.5753 34.9764 42.1215 33.3525 43.7065 31.7674C43.8347 31.6315 43.9435 31.4877 44.0329 31.3207C44.2854 30.8389 44.3126 30.2562 44.1067 29.7472C44.0251 29.5452 43.9047 29.3665 43.7648 29.1995C43.4385 28.8537 43.1005 28.5235 42.7664 28.1894C42.8363 28.0923 42.8985 27.9912 42.9529 27.8786C43.1821 27.3813 43.1821 26.7986 42.9529 26.3013C42.8596 26.107 42.7353 25.9322 42.5838 25.7768L42.2885 25.4815ZM41.4338 29.5647L42.3235 30.4504L37.6965 35.0813L36.8224 34.2072C38.3802 32.6804 39.9032 31.1148 41.4338 29.5647ZM25.4161 20.3145C27.8209 22.7154 30.1946 25.0775 32.0128 26.8646C32.2769 27.1093 32.5606 27.3269 32.8675 27.5095C32.8791 27.5134 32.8869 27.5212 32.8947 27.525C32.9296 27.5445 32.9646 27.5639 32.9995 27.5833C33.0151 27.5911 33.0306 27.5989 33.0423 27.6066C33.3647 27.7776 33.7105 27.9058 34.0601 27.9951H34.064H34.0757L34.0796 27.999H34.0835H34.0912L34.0951 28.0029H34.099H34.1068L34.1184 28.0068C34.6079 28.1233 35.1169 28.1544 35.6219 28.1039C35.6452 28.1 35.6685 28.0961 35.6957 28.0961C35.7268 28.0923 35.754 28.0884 35.7851 28.0806C36.1231 28.034 36.4533 27.9446 36.7719 27.8281L36.7757 27.8242H36.7796L36.7874 27.8203H36.7913C36.8107 27.8125 36.8301 27.8048 36.8534 27.7931L36.9273 27.762H36.9311C38.0928 27.2764 39.2505 26.7908 40.4082 26.2935L41.2046 27.0899L40.7578 27.5367C38.7144 29.4714 36.7796 31.5149 34.7905 33.5079L34.336 33.9586L23.2716 22.8942C23.291 22.8825 23.3065 22.8708 23.326 22.8592C23.3609 22.8359 23.3998 22.8087 23.4386 22.7854C23.4503 22.7737 23.4658 22.766 23.4814 22.7543C23.493 22.7465 23.5047 22.7349 23.5163 22.7271C23.5668 22.6921 23.6135 22.6572 23.6562 22.6222C23.6678 22.6183 23.6756 22.6105 23.6834 22.6028L23.7028 22.5872C23.8388 22.4785 23.9709 22.3658 24.0991 22.2454C24.3283 22.0278 24.5381 21.7908 24.7246 21.5383C24.8061 21.4295 24.8838 21.3207 24.9577 21.2042C24.9887 21.1576 25.0198 21.1071 25.0509 21.0566C25.1519 20.8817 25.249 20.703 25.3306 20.5166C25.3617 20.4505 25.3889 20.3845 25.4161 20.3145ZM9.63532 25.6175C9.78683 25.5631 9.94223 25.5282 10.1015 25.5165C10.1637 25.5126 10.2258 25.5087 10.288 25.5087C10.4317 25.5165 10.5716 25.5359 10.7115 25.5748C10.8474 25.6098 10.9795 25.6641 11.1038 25.7341L11.1155 25.7418C11.5312 25.9788 11.842 26.379 11.9624 26.8452V26.8491V26.8568L11.9663 26.8685V26.8724L11.9702 26.8879L11.9741 26.8957V26.9073L11.978 26.9112V26.9229V26.9268C12.0129 27.0783 12.0207 27.2376 12.0129 27.393C11.9974 27.6377 11.9313 27.8708 11.8226 28.0884C11.7371 28.2554 11.6283 28.4069 11.4962 28.539C11.3447 28.6905 11.166 28.8149 10.9717 28.9042C10.7542 29.0013 10.5211 29.0557 10.288 29.0596C10.051 29.0674 9.81014 29.0246 9.5887 28.9392C9.39056 28.8576 9.20797 28.7449 9.04869 28.5973C8.97487 28.5351 8.90883 28.4613 8.85055 28.3875C8.82724 28.3564 8.80005 28.3253 8.78062 28.2904L8.77285 28.2826C8.67184 28.1311 8.59026 27.964 8.53587 27.7892V27.7814L8.53198 27.7737C8.52033 27.7271 8.50868 27.6804 8.50091 27.6338L8.49702 27.6183L8.49314 27.6105V27.6066C8.43486 27.2803 8.46982 26.9462 8.58637 26.6393C8.71458 26.3207 8.93214 26.041 9.21185 25.839C9.34394 25.7457 9.4838 25.6719 9.63532 25.6175ZM6.56619 27.0317L4.75967 26.0099V23.1389C5.69984 23.675 6.64 24.2073 7.58405 24.7395C7.52578 24.7978 7.47139 24.8599 7.42088 24.9182C7.37426 24.9765 7.33153 25.0309 7.28879 25.0892C7.27325 25.1047 7.2616 25.1202 7.24994 25.1397C7.12562 25.3106 7.01684 25.4971 6.9236 25.6874C6.76432 26.0177 6.65554 26.3673 6.60115 26.7247C6.58561 26.8257 6.57396 26.9306 6.56619 27.0317ZM21.3563 13.5081L16.0844 8.23226C16.0844 8.23226 15.9795 8.09629 15.9445 8.0147C15.8513 7.79714 15.8513 7.54074 15.9445 7.32318C15.9834 7.23771 16.0339 7.16001 16.096 7.08619C17.6889 5.36903 19.3128 3.66353 21.0727 2.11342C21.2048 2.00465 21.3602 1.93472 21.5311 1.91141C21.5738 1.90752 21.6166 1.90752 21.6593 1.90752C21.8652 1.91529 22.0595 1.99299 22.2187 2.12896C29.3127 8.70234 35.8977 15.808 42.7392 22.6494C42.7508 22.6611 42.7625 22.6727 42.7741 22.6883C42.8013 22.7271 42.8247 22.7698 42.8363 22.8165C42.8829 22.9874 42.7975 23.1661 42.6382 23.2399C41.9156 23.5663 41.193 23.8887 40.4665 24.2073C40.4548 24.2073 40.4432 24.2112 40.4315 24.2112C40.3421 24.2306 40.3188 24.2422 40.2334 24.2733C38.8775 24.8522 37.5372 25.4738 36.1619 26.0177L36.0881 26.0488L36.0609 26.0565L36.0415 26.0643C35.8434 26.1342 35.6374 26.1847 35.4277 26.208C34.8954 26.2624 34.3554 26.1537 33.8892 25.8972C33.6988 25.7923 33.3958 25.5359 33.3181 25.4699L25.4899 17.6417C24.1496 16.2237 22.7393 14.8756 21.3563 13.5081ZM12.2266 24.184L12.2111 24.1762L12.2072 24.1723L15.4667 21.0177C15.4705 21.0216 15.4705 21.0255 15.4744 21.0294C15.6337 21.2974 15.8124 21.5538 16.0144 21.7947C16.1426 21.9423 16.2747 22.0861 16.4146 22.2182C16.6438 22.4396 16.8886 22.6416 17.1527 22.8203L17.1566 22.8242H17.1605L17.176 22.8359L13.7456 26.1537C13.734 26.1265 13.7262 26.0954 13.7145 26.0682C13.7068 26.041 13.699 26.0177 13.6873 25.9944V25.9905L13.6835 25.9866C13.6485 25.8856 13.6058 25.7846 13.5591 25.6874C13.5203 25.6098 13.4776 25.5321 13.4348 25.4544C13.4193 25.4272 13.4037 25.4 13.3882 25.3728C13.1823 25.0387 12.922 24.7318 12.6229 24.4792C12.5724 24.4365 12.5219 24.3976 12.4713 24.3588C12.3937 24.2966 12.3121 24.2384 12.2266 24.184ZM19.7207 14.6036C20.9989 15.8857 22.4208 17.3192 23.8776 18.7761C23.8699 18.8266 23.8621 18.8771 23.8543 18.9237C23.7844 19.2578 23.6756 19.5803 23.5202 19.8833C23.2288 20.4505 22.786 20.94 22.2459 21.2897C22.1333 21.3596 22.0206 21.4256 21.9002 21.4878C21.7254 21.5694 21.5466 21.6432 21.3641 21.7015C21.3174 21.717 21.2708 21.7287 21.2281 21.7403C20.8318 21.8491 20.4161 21.8879 20.0082 21.8569C19.6935 21.8374 19.3866 21.7753 19.0913 21.6743C19.0214 21.6471 18.9476 21.6238 18.8777 21.5927L18.8621 21.5888L18.8505 21.581C18.7534 21.5422 18.6562 21.4956 18.5669 21.4451C17.8715 21.0799 17.3043 20.4894 16.9701 19.7823C16.8691 19.5725 16.7914 19.3511 16.7332 19.1296C16.6788 18.9159 16.6438 18.6984 16.6283 18.4808C16.5933 18.0107 16.6516 17.5368 16.7953 17.0861C16.8186 17.0162 16.8419 16.9463 16.8691 16.8763L16.873 16.8686C16.9352 16.7209 17.0051 16.5733 17.0828 16.4296C17.2538 16.1265 17.4674 15.8468 17.7161 15.6059L17.7238 15.5982L17.7316 15.5865C17.9025 15.4272 18.0851 15.2796 18.2794 15.1514H18.2833L18.2949 15.1397C18.4581 15.0387 18.629 14.9455 18.8039 14.8678C19.0913 14.7435 19.3905 14.6619 19.6974 14.6075L19.7207 14.6036ZM15.5055 10.3612C16.1155 10.9789 17.0517 11.9191 18.1861 13.0613C18.0851 13.104 18.0812 13.104 17.9686 13.1545C17.852 13.2089 17.852 13.2089 17.7355 13.2672C17.7238 13.275 17.7122 13.2788 17.7005 13.2866C17.4558 13.4109 17.2227 13.5586 17.0012 13.7217L16.9779 13.7373C16.9701 13.7412 16.9624 13.7489 16.9507 13.7567L16.9041 13.7878L16.8808 13.8072C16.4418 14.1452 16.0533 14.5492 15.7347 15.0038C15.7153 15.0271 15.6998 15.0504 15.6842 15.0737L15.6337 15.1436L15.591 15.2136C15.4123 15.0349 15.2336 14.86 15.0549 14.6774C14.8528 14.4599 14.6819 14.2151 14.5537 13.9432C14.1963 13.1934 14.1963 12.3037 14.5537 11.55C14.6897 11.2548 14.88 10.9945 15.1092 10.7614L15.5055 10.3612ZM21.6243 4.69693C21.4806 4.7047 21.3369 4.73967 21.2048 4.8096C21.1154 4.85622 21.0338 4.91838 20.9639 4.98831C20.7191 5.24471 20.6337 5.62156 20.7463 5.95567C20.793 6.08387 20.8629 6.20042 20.9522 6.30143C21.9468 7.33095 22.9608 8.34104 23.9903 9.33559C24.1068 9.44049 24.2428 9.52207 24.3982 9.56092C24.4953 9.58812 24.5964 9.59589 24.6974 9.592C25.0509 9.56869 25.3695 9.34725 25.5093 9.0248C25.5559 8.9199 25.5831 8.81112 25.5909 8.69846C25.5987 8.57414 25.5792 8.44982 25.5404 8.33327C25.4977 8.20507 25.4277 8.08851 25.3345 7.99139C24.3438 6.96187 23.3298 5.94789 22.3003 4.95334C22.1488 4.81737 21.9662 4.7319 21.7603 4.7047C21.7137 4.70082 21.671 4.69693 21.6243 4.69693Z" fill="#383838"/>
</svg>
