<svg width="43" height="43" viewBox="0 0 43 43" fill="none" xmlns="http://www.w3.org/2000/svg">
<path d="M40.3285 35.3101C38.7521 34.6119 37.074 34.1708 35.3582 34.0034C34.3974 33.8881 33.5071 33.8561 32.857 33.8337C32.4984 33.8337 32.1877 33.8113 32.05 33.7953C31.4322 33.4973 30.8352 33.1581 30.263 32.78C29.737 32.4352 29.1917 32.1208 28.6297 31.8385C27.1013 31.2735 25.4997 30.9305 23.874 30.8202C23.7898 30.8143 23.7054 30.825 23.6254 30.8518C23.5454 30.8785 23.4716 30.9208 23.4079 30.976C23.3443 31.0314 23.2922 31.0986 23.2545 31.1741C23.2169 31.2495 23.1945 31.3317 23.1886 31.4158C23.1827 31.4999 23.1935 31.5843 23.2202 31.6643C23.247 31.7443 23.2892 31.8182 23.3446 31.8818C23.3998 31.9455 23.4672 31.9976 23.5426 32.0353C23.618 32.0729 23.7002 32.0953 23.7843 32.1012C25.2674 32.207 26.7288 32.5174 28.1269 33.0235C28.4023 33.1419 29.0076 33.5134 29.5937 33.8753C30.8747 34.6664 31.4767 35.0154 31.8674 35.0667C32.0884 35.0955 32.4086 35.1051 32.8281 35.1211C33.4687 35.1435 34.3142 35.1755 35.2237 35.2812C36.8041 35.4329 38.3501 35.8361 39.8032 36.4757C40.5687 36.8344 40.732 37.27 40.7352 37.3532C40.6295 38.2884 40.5655 38.6759 40.5398 38.7592C40.4792 38.8917 40.3882 39.0081 40.2741 39.0988C40.1601 39.1896 40.0261 39.252 39.8833 39.2812C39.6169 39.3372 39.3475 39.3778 39.0763 39.4028C39.1374 38.9746 39.1047 38.5383 38.9806 38.1239C38.8566 37.7095 38.644 37.3271 38.3576 37.0029C38.0713 36.6788 37.718 36.4206 37.3221 36.2464C36.9262 36.0721 36.4972 35.9859 36.0648 35.9936C35.6323 36.0014 35.2066 36.1029 34.8172 36.2912C34.4279 36.4796 34.084 36.7502 33.8094 37.0844C33.5349 37.4186 33.3362 37.8085 33.227 38.227C33.1178 38.6456 33.1009 39.0829 33.1772 39.5086L31.4863 39.4286C30.2533 39.3804 29.0876 39.3356 28.4664 39.3356C26.9964 39.3356 20.2615 39.3996 19.5697 39.4446C19.3648 39.4446 19.0317 39.4702 18.5834 39.4798C18.658 39.0518 18.6382 38.6126 18.5258 38.1931C18.4133 37.7735 18.2106 37.3835 17.9319 37.0502C17.6533 36.7169 17.3052 36.4485 16.9122 36.2635C16.5191 36.0784 16.0904 35.9814 15.656 35.9791C15.2216 35.9767 14.7919 36.069 14.3968 36.2498C14.0018 36.4305 13.6509 36.6952 13.3686 37.0254C13.0864 37.3556 12.8794 37.7434 12.7624 38.1617C12.6453 38.5801 12.6209 39.0189 12.6908 39.4478C12.3946 39.4217 12.1005 39.3768 11.8101 39.3132C11.7302 39.2866 11.6458 39.2761 11.5618 39.2822C11.4779 39.2882 11.3959 39.3108 11.3207 39.3486C11.2454 39.3863 11.1783 39.4386 11.1233 39.5023C11.0683 39.566 11.0263 39.64 10.9999 39.7199C10.9461 39.8809 10.9583 40.0566 11.034 40.2085C11.1097 40.3605 11.2425 40.4761 11.4034 40.5301C12.1335 40.7736 11.951 40.6839 13.2544 40.7896C13.5312 41.1619 13.8913 41.4643 14.3059 41.6726C14.7204 41.881 15.1779 41.9895 15.6419 41.9895C16.1058 41.9895 16.5633 41.881 16.9779 41.6726C17.3925 41.4643 17.7525 41.1619 18.0294 40.7896C18.8108 40.7896 19.3392 40.7608 19.6467 40.7416C20.2647 40.7031 26.8235 40.6358 28.46 40.6358C29.0588 40.6358 30.2117 40.6807 31.4319 40.7288C32.1973 40.7576 32.9947 40.7896 33.7153 40.812C33.9982 41.1882 34.3663 41.4919 34.7894 41.6984C35.2123 41.9047 35.6782 42.008 36.1488 41.9995C36.6195 41.9911 37.0814 41.8712 37.4968 41.6498C37.9121 41.4283 38.269 41.1116 38.5383 40.7256C39.0698 40.7069 39.5989 40.6447 40.1203 40.5397C40.4942 40.4664 40.842 40.2958 41.1289 40.045C41.4156 39.7942 41.6311 39.4721 41.7536 39.1115C41.8705 38.5841 41.9486 38.0489 41.9874 37.5102C42.0643 36.8248 41.5775 35.9057 40.3285 35.3101ZM15.6371 40.7095C15.2992 40.7108 14.9686 40.6117 14.687 40.425C14.4055 40.2382 14.1857 39.972 14.0556 39.6602C13.9253 39.3484 13.8906 39.005 13.9558 38.6735C14.0209 38.3419 14.183 38.0372 14.4214 37.7978C14.6599 37.5585 14.964 37.3952 15.2953 37.3289C15.6266 37.2625 15.9702 37.2959 16.2824 37.425C16.5947 37.554 16.8616 37.7727 17.0495 38.0536C17.2373 38.3344 17.3376 38.6647 17.3376 39.0025C17.3376 39.4542 17.1586 39.8873 16.8399 40.2073C16.5212 40.5273 16.0887 40.7078 15.6371 40.7095ZM36.0979 40.7095C35.7604 40.7095 35.4303 40.6094 35.1496 40.4218C34.8689 40.2342 34.6501 39.9677 34.5209 39.6558C34.3917 39.3439 34.3579 39.0007 34.4238 38.6695C34.4896 38.3384 34.6522 38.0343 34.891 37.7956C35.1297 37.5569 35.4338 37.3943 35.7649 37.3284C36.0961 37.2625 36.4393 37.2963 36.7512 37.4255C37.0631 37.5547 37.3297 37.7736 37.5172 38.0542C37.7048 38.3349 37.8049 38.665 37.8049 39.0025C37.8049 39.4553 37.625 39.8895 37.305 40.2096C36.9848 40.5296 36.5507 40.7095 36.0979 40.7095Z" fill="#383838" stroke="#383838" stroke-width="0.5"/>
<path d="M40.1751 3.19515C30.0935 -1.18593 17.9784 1.12632 9.83439 8.92126L6.88169 6.055C6.82137 5.99634 6.75001 5.95017 6.67182 5.91898C6.59364 5.88789 6.51009 5.8725 6.42591 5.87374C6.34174 5.87488 6.25859 5.89264 6.18134 5.9259C6.10409 5.95926 6.03406 6.00749 5.9754 6.06781C5.91674 6.12812 5.87057 6.19949 5.83938 6.27767C5.80829 6.35586 5.7929 6.43941 5.79414 6.52359C5.79527 6.60776 5.81304 6.6909 5.8463 6.76816C5.87966 6.84552 5.92789 6.91544 5.9882 6.9741L8.9281 9.82755C1.0051 18.106 -1.23672 30.3525 3.37178 40.5172C3.42291 40.6295 3.50553 40.7246 3.60943 40.7911C3.71344 40.8575 3.83438 40.8926 3.9578 40.8919C4.06408 40.8918 4.1686 40.8652 4.26207 40.8146C4.35554 40.7639 4.43486 40.6908 4.493 40.6019C4.55115 40.5129 4.58627 40.4108 4.59515 40.305C4.60403 40.1991 4.58637 40.0926 4.54382 39.9953L4.5118 39.9312C4.4552 39.7794 4.43248 39.617 4.44518 39.4555C4.45789 39.294 4.50581 39.1372 4.58554 38.9961C4.90571 38.3908 5.63271 37.8944 6.55501 37.6638C7.71114 37.3756 8.94731 37.5901 9.64229 38.141C9.77997 38.3043 9.91774 38.4612 10.065 38.6054L10.0874 38.6214L10.1547 38.679L10.1931 38.7014L10.2603 38.7367L10.3051 38.7527L10.3725 38.7719H10.4205H10.4878H10.5358H10.603H10.6542L10.7151 38.7527L10.7696 38.7335L10.8144 38.7078L10.8592 38.6822C10.8865 38.6629 10.9121 38.6415 10.9361 38.6182C10.9646 38.5897 10.9903 38.5586 11.0129 38.5253L11.0321 38.49C11.0453 38.4683 11.057 38.4459 11.0674 38.4228C11.0674 38.4228 11.0674 38.3908 11.0834 38.3748C11.0909 38.3538 11.0973 38.3324 11.1026 38.3107C11.1026 38.2947 11.1026 38.2787 11.1026 38.2595C11.1038 38.2371 11.1038 38.2147 11.1026 38.1923C11.1026 38.1763 11.1026 38.157 11.1026 38.141C11.1038 38.1186 11.1038 38.0961 11.1026 38.0737C11.1026 38.0545 11.1026 38.0385 11.1026 38.0193C11.1026 38.0001 11.1026 37.9969 11.1026 37.9873C10.9009 37.3116 12.089 35.5693 14.7631 34.1923C17.6453 32.7063 20.028 32.7384 20.4668 33.4141C20.5491 33.5383 20.6722 33.63 20.8148 33.6732C20.9575 33.7165 21.1107 33.7086 21.2482 33.6511H21.2738L21.325 33.6223L21.3859 33.5871L21.4179 33.5582L21.4691 33.5165L21.5044 33.4717C21.5206 33.4524 21.5355 33.432 21.5493 33.4109L21.5749 33.366C21.5871 33.3422 21.5977 33.3176 21.6069 33.2924C21.6069 33.2764 21.6069 33.2604 21.6069 33.2444C21.6138 33.2191 21.6191 33.1935 21.6229 33.1675C21.6229 33.1675 21.6229 33.1515 21.6229 33.1419C21.6229 33.1322 21.6229 33.1226 21.6229 33.113C21.6245 33.0875 21.6245 33.0618 21.6229 33.0362C21.6229 33.017 21.6229 33.0009 21.6229 32.9817C21.6191 32.9558 21.6138 32.9302 21.6069 32.9049C21.6069 32.8889 21.6069 32.8729 21.6069 32.8569C21.5967 32.8316 21.5849 32.807 21.5717 32.7832L21.6165 32.7031C21.6009 32.6796 21.5838 32.6571 21.5653 32.6358L21.5397 32.6006C21.0945 32.1363 22.2153 29.3981 25.3058 26.1572L32.0983 32.5942C32.1578 32.6537 32.2284 32.7009 32.3062 32.7331C32.384 32.7654 32.4673 32.782 32.5515 32.782C32.6357 32.782 32.7189 32.7654 32.7967 32.7331C32.8745 32.7009 32.9451 32.6537 33.0046 32.5942C33.0642 32.5347 33.1114 32.4641 33.1435 32.3863C33.1757 32.3085 33.1924 32.2252 33.1924 32.1411C33.1924 32.057 33.1757 31.9736 33.1435 31.8958C33.1114 31.8181 33.0642 31.7474 33.0046 31.6879L26.2089 25.2572C29.4274 22.1893 32.1623 21.0748 32.6139 21.5167L32.6395 21.5359C32.7068 21.5934 32.7853 21.6363 32.87 21.6619C32.9547 21.6875 33.0438 21.6954 33.1316 21.6848C33.2195 21.6743 33.3042 21.6456 33.3805 21.6008C33.4567 21.5558 33.5229 21.4956 33.5747 21.4239V21.4078C33.6233 21.3377 33.6576 21.2586 33.6753 21.175C33.693 21.0916 33.6938 21.0054 33.6777 20.9215C33.6616 20.8376 33.6288 20.7579 33.5815 20.6868C33.5341 20.6159 33.473 20.5551 33.4017 20.508C32.7292 20.066 32.7004 17.6833 34.1831 14.8075C35.3136 12.6138 36.6843 11.3936 37.5394 11.1598C37.697 11.1046 37.8686 11.1046 38.0262 11.1598L38.0678 11.1822L38.1191 11.2238C38.2006 11.2808 38.2942 11.318 38.3927 11.3324C38.491 11.3468 38.5915 11.3382 38.6859 11.3072C38.7818 11.2776 38.8694 11.2261 38.9417 11.1566C39.014 11.0871 39.069 11.0014 39.1022 10.9068V10.8748C39.159 10.7269 39.159 10.5633 39.1023 10.4154C39.0455 10.2675 38.9359 10.146 38.7947 10.0742C38.5499 9.8449 38.291 9.631 38.0198 9.43363C37.5209 8.54273 37.3931 7.49102 37.6643 6.50655C37.9845 5.15191 38.9261 4.23601 39.7716 4.41851C39.9271 4.45249 40.0898 4.4274 40.2278 4.34797C40.3657 4.26855 40.4692 4.14058 40.5181 3.98907C40.5668 3.83745 40.5574 3.67313 40.4916 3.52823C40.4258 3.38322 40.3084 3.26785 40.1623 3.20475L40.1751 3.19515ZM6.25085 36.4212C5.25821 36.6349 4.36803 37.1805 3.72728 37.968C1.02111 30.2821 2.18684 21.6161 6.70239 14.6858C6.04862 17.3122 5.73217 20.0113 5.76078 22.7177C5.76078 27.0123 6.48778 32.623 8.44134 36.3155C7.71135 36.2064 6.9669 36.2423 6.25085 36.4212ZM14.2251 33.0522C12.1979 34.0962 10.7375 35.4285 10.1419 36.6678C8.24913 33.84 7.03548 28.5014 7.04188 22.7209C7.04188 17.7986 7.92896 13.6961 9.44048 11.3392C9.58786 11.8323 9.79598 12.4632 10.081 13.2606C10.792 15.227 11.8264 17.7442 12.9217 20.1941C14.0682 22.7401 16.6654 28.2709 19.1313 31.6975C17.6581 31.6911 15.8103 32.2355 14.2251 33.0522ZM20.3611 31.2204C16.3772 25.917 11.314 13.5105 10.539 10.5225C13.5397 11.3104 25.9527 16.3927 31.2368 20.3415C29.3506 20.9083 26.8815 22.7593 24.8318 24.8249C22.7822 26.8905 20.9279 29.3341 20.3611 31.2204ZM33.0783 14.2086C32.2617 15.7939 31.7172 17.6321 31.7236 19.1149C28.2969 16.6522 22.7566 14.0548 20.2201 12.918C17.7863 11.8291 15.2562 10.7915 13.2868 10.0774C12.4765 9.78273 11.8488 9.57451 11.3652 9.43684C16.8095 6.00698 30.9838 6.40089 36.7611 10.103C35.4833 10.6826 34.1127 12.207 33.0783 14.2086ZM36.4314 6.20228C36.2515 6.92153 36.2156 7.66928 36.3256 8.40248C32.9662 6.69875 28.1561 5.93013 24.1753 5.80196C21.1521 5.69631 17.6613 5.93334 14.6894 6.71156C19.0963 3.83239 24.2435 2.29288 29.5075 2.27925C32.3853 2.27439 35.2435 2.75403 37.9621 3.69792C37.1901 4.33465 36.6515 5.21006 36.4314 6.18627V6.20228Z" fill="#383838" stroke="#383838" stroke-width="0.5"/>
</svg>
