<svg width="56" height="31" viewBox="0 0 56 31" fill="none" xmlns="http://www.w3.org/2000/svg">
<path d="M52.6491 15.2637C53.6415 16.5352 53.9723 17.9173 53.9172 19.4652C53.8619 21.6212 53.9172 23.8325 53.9172 25.9886C53.9172 27.3153 53.9172 27.3153 53.4209 28.5868C53.8068 28.5868 54.1376 28.5868 54.5236 28.5868C54.9095 28.5868 55.2403 28.5868 55.6813 28.5868C55.6813 29.1396 55.6813 29.6924 55.6813 30.3006C37.3222 30.3006 18.9631 30.3006 0.548828 30.3006C0.548828 29.7478 0.548828 29.2502 0.548828 28.5868C2.97466 28.5868 5.45563 28.5868 7.99172 28.5868C7.99172 24.6065 7.99172 20.7366 7.99172 16.7564C6.61341 16.7564 5.29022 16.7564 3.96705 16.7564C3.0298 16.7564 2.3682 16.2035 2.2028 15.319C2.14767 15.1532 2.14767 14.9873 2.14767 14.8215C2.14767 10.7858 2.14767 6.80547 2.14767 2.76985C2.14767 1.49835 2.86439 0.834961 4.13244 0.834961C8.15711 0.834961 12.1266 0.834961 16.1513 0.834961C17.3642 0.834961 18.0809 1.49835 18.0809 2.76985C18.0809 6.80547 18.0809 10.8411 18.0809 14.8767C18.0809 16.1482 17.4193 16.7564 16.1513 16.8116C14.8282 16.8116 13.5601 16.8116 12.237 16.8116C12.237 20.792 12.237 24.6617 12.237 28.5868C14.9384 28.5868 17.6399 28.5868 20.4517 28.5868C19.6246 27.5365 19.7901 26.4308 19.7901 25.3804C19.7901 23.3349 19.7901 21.2895 19.7901 19.244C19.735 17.8067 20.1209 16.4799 20.9479 15.4295C20.5619 14.9873 20.0106 14.6556 19.9555 14.2133C19.7901 13.4394 19.8452 12.6102 19.9555 11.8362C20.0658 11.2281 20.6171 10.8964 21.2787 10.8411C21.9954 10.8411 22.7121 10.7858 23.4289 10.8411C23.8148 10.8411 24.0353 10.7306 24.2007 10.3436C24.8071 9.18267 25.3585 7.96641 26.3509 7.08189C27.4535 6.0868 28.7767 5.53398 30.2653 5.53398C34.5656 5.4787 38.8659 5.4787 43.1663 5.4787C45.537 5.4787 47.3563 6.52906 48.5692 8.57452C48.6244 8.68509 48.7347 8.85093 48.7898 8.9615C49.1206 9.56964 49.3411 10.3989 49.8373 10.6752C50.3335 10.9516 51.1605 10.7858 51.8772 10.7858C53.3658 10.7858 53.8619 11.2834 53.8619 12.776C53.8619 12.9419 53.8619 13.1077 53.8619 13.2735C53.9172 14.2686 53.5863 14.932 52.6491 15.2637ZM50.8848 26.2096C50.0027 26.2096 49.2309 26.2096 48.459 26.2096C48.459 27.647 48.7898 27.9787 50.1681 27.9787C50.4437 27.9787 50.6643 27.9787 50.94 27.9787C51.767 27.9234 52.208 27.5365 52.208 26.7072C52.208 24.0536 52.208 21.4001 52.208 18.7465C52.208 17.0881 51.1605 15.706 49.6168 15.1531C49.2309 15.0426 49.0103 15.0426 48.7898 15.3743C47.9076 16.6457 46.9704 17.862 46.0331 19.0782C45.0959 20.2391 43.883 20.8473 42.3945 20.8473C38.921 20.8473 35.4477 20.8473 31.9744 20.8473C30.2101 20.8473 28.8318 20.1839 27.8394 18.7465C27.0124 17.5856 26.1303 16.4246 25.3034 15.2637C25.1379 14.9873 24.9726 14.932 24.6418 15.0426C22.9326 15.4295 21.6646 16.8116 21.6095 18.5807C21.5544 21.2895 21.6095 24.0536 21.6095 26.7625C21.6095 27.4258 22.0505 27.8682 22.7121 27.9234C23.2083 27.9787 23.7045 27.9787 24.2007 27.9234C24.8071 27.8682 25.193 27.4811 25.2482 26.8178C25.2482 26.5966 25.3034 26.3755 25.3585 26.0991C24.3109 26.0991 23.3185 26.0991 22.3262 26.0991C22.3262 25.491 22.3262 24.9382 22.3262 24.3853C31.9192 24.3853 41.4572 24.3853 50.9951 24.3853C50.8848 25.0487 50.8848 25.6015 50.8848 26.2096ZM48.7898 13.2182C48.6795 12.8865 48.6244 12.6102 48.5141 12.3337C48.0731 11.5045 47.632 10.6752 47.1909 9.84599C46.2537 8.07697 44.8202 7.24774 42.8355 7.24774C40.5751 7.30302 38.2594 7.30302 35.999 7.30302C34.2348 7.30302 32.4154 7.30302 30.6512 7.30302C28.8318 7.30302 27.3983 8.02169 26.4611 9.68018C25.9649 10.6199 25.4687 11.5598 24.9726 12.4995C24.8623 12.7207 24.8622 12.9419 24.8071 13.2182C32.8565 13.2182 40.7404 13.2182 48.7898 13.2182ZM16.2064 2.60401C12.0715 2.60401 7.99172 2.60401 3.91191 2.60401C3.91191 6.7502 3.91191 10.8964 3.91191 14.9873C8.04685 14.9873 12.1266 14.9873 16.2064 14.9873C16.2064 10.8411 16.2064 6.7502 16.2064 2.60401ZM46.805 15.0426C40.2443 15.0426 33.7386 15.0426 27.1779 15.0426C28.06 16.2035 28.8318 17.2539 29.6588 18.3043C30.155 18.9124 30.8717 19.1335 31.6436 19.1335C35.2272 19.1335 38.7557 19.1335 42.3392 19.1335C43.2214 19.1335 43.9381 18.8018 44.4894 18.1384C45.3164 17.1433 46.0331 16.0929 46.805 15.0426ZM26.5714 28.5315C33.4078 28.5315 40.2994 28.5315 47.1358 28.5315C46.9704 27.9234 46.8602 27.3153 46.6947 26.7625C46.5845 26.3755 46.3639 26.2096 45.9229 26.2096C39.9135 26.2096 33.8489 26.2096 27.8394 26.2096C27.3432 26.2096 27.0675 26.4308 26.9573 26.9283C26.8471 27.4258 26.6816 27.9787 26.5714 28.5315ZM9.75597 16.8116C9.75597 20.7366 9.75597 24.6065 9.75597 28.5868C9.97653 28.5868 10.0868 28.5868 10.2521 28.5868C10.3073 28.4762 10.3073 28.4762 10.3073 28.4209C10.3073 24.6617 10.3073 20.9578 10.3073 17.1986C10.3625 16.7564 10.1419 16.7011 9.75597 16.8116ZM23.0981 12.6102C22.5467 12.6102 22.0505 12.6102 21.5544 12.6102C21.5544 12.9419 21.5544 13.163 21.5544 13.4394C22.1056 13.4394 22.6018 13.4394 23.0981 13.4394C23.0981 13.163 23.0981 12.9419 23.0981 12.6102ZM52.0426 13.4947C52.0426 13.163 52.0426 12.8865 52.0426 12.6102C51.4913 12.6102 51.0502 12.6102 50.4989 12.6102C50.4989 12.8865 50.4989 13.163 50.4989 13.4947C51.0502 13.4947 51.5464 13.4947 52.0426 13.4947Z" fill="#252423"/>
<path d="M24.5877 22.5615C23.2094 22.5615 22.1068 21.4559 22.0516 20.0738C22.0516 18.6917 23.2094 17.5308 24.5877 17.5308C25.966 17.5308 27.1239 18.6917 27.1239 20.0738C27.1239 21.4006 25.966 22.5062 24.5877 22.5615ZM25.3596 20.0738C25.3596 19.6315 25.0288 19.2998 24.6429 19.2998C24.2018 19.2998 23.9261 19.5763 23.9261 20.0185C23.9261 20.4608 24.2569 20.7925 24.698 20.7925C25.0839 20.7372 25.3045 20.4608 25.3596 20.0738Z" fill="#252423"/>
<path d="M49.067 22.5604C47.6888 22.5604 46.5861 21.4548 46.531 20.128C46.531 18.7459 47.6337 17.585 49.0119 17.585C50.3902 17.585 51.4929 18.6906 51.548 20.0174C51.6031 21.3995 50.5005 22.5051 49.067 22.5604ZM49.7838 20.0174C49.7286 19.5752 49.5082 19.2988 49.067 19.2988C48.626 19.2988 48.3503 19.5752 48.2952 20.0174C48.2401 20.4044 48.626 20.7914 49.067 20.7914C49.5082 20.7361 49.7286 20.4597 49.7838 20.0174Z" fill="#252423"/>
<path d="M7.44124 3.81979C8.76442 3.81979 10.0325 3.70923 11.3006 3.87508C12.9545 4.09621 13.9469 5.47827 13.9469 7.13675C13.9469 9.56918 12.6788 10.896 10.253 10.896C9.92221 10.896 9.59141 10.896 9.15036 10.896C9.15036 11.891 9.15036 12.8309 9.15036 13.7706C8.54389 13.7706 7.99256 13.7706 7.38611 13.7706C7.44124 10.4537 7.44124 7.13675 7.44124 3.81979ZM9.20548 5.53355C9.20548 6.74977 9.20548 7.85542 9.20548 9.01639C9.81197 9.01639 10.3633 9.07166 10.9146 9.01639C11.907 8.85051 12.2929 8.18711 12.1826 6.91562C12.1275 6.19695 11.521 5.58884 10.6941 5.53355C10.1979 5.53355 9.75677 5.53355 9.20548 5.53355Z" fill="#252423"/>
</svg>
