<svg width="59" height="37" viewBox="0 0 59 37" fill="none" xmlns="http://www.w3.org/2000/svg">
<path d="M17.3499 19.394H6.91727L6.34887 25.1302C6.31645 25.4529 6.37176 25.7783 6.50882 26.0713C6.64589 26.3644 6.85946 26.6139 7.12639 26.7928L7.27405 26.8919C8.71384 27.8636 10.4051 28.3822 12.135 28.3822C13.865 28.3822 15.5562 27.8636 16.996 26.8919L17.1442 26.7921C17.4112 26.6133 17.6247 26.3638 17.7616 26.0708C17.8986 25.7777 17.9538 25.4523 17.9211 25.1297L17.3499 19.394ZM16.4938 25.8024L16.3456 25.9021C15.0976 26.7445 13.6316 27.194 12.1321 27.194C10.6326 27.194 9.16654 26.7445 7.9186 25.9021L7.77093 25.803C7.68232 25.7432 7.61151 25.6601 7.56591 25.5626C7.5204 25.4651 7.50196 25.3569 7.51256 25.2496L7.97489 20.5815H16.2923L16.7546 25.2502C16.7647 25.3575 16.7458 25.4656 16.6998 25.563C16.6539 25.6602 16.5827 25.743 16.4938 25.8024Z" fill="#383838" stroke="#383838" stroke-width="0.5"/>
<path d="M6.94878 12.2771H17.3164L17.8478 9.04529C17.9072 8.68263 17.8547 8.31026 17.6974 7.97894C17.5401 7.64772 17.2857 7.37376 16.969 7.19457L15.8328 6.5551C14.7025 5.9142 13.429 5.57764 12.1337 5.57764C10.8386 5.57764 9.565 5.9142 8.43471 6.5551L7.29746 7.19457C6.98076 7.37376 6.72648 7.64763 6.56911 7.97877C6.41182 8.3099 6.35928 8.68209 6.41851 9.04467L6.94878 12.2771ZM7.8664 8.23241L9.00248 7.59295C9.95901 7.05073 11.0367 6.766 12.1326 6.766C13.2286 6.766 14.3063 7.05073 15.2627 7.59295L16.3988 8.23241C16.5042 8.29244 16.5889 8.38392 16.6414 8.49435C16.6938 8.60488 16.7114 8.72903 16.6918 8.84998L16.3238 11.0895H7.94139L7.57285 8.84936C7.5529 8.72841 7.57044 8.60417 7.62299 8.49364C7.67554 8.3832 7.76059 8.292 7.8664 8.23241Z" fill="#383838" stroke="#383838" stroke-width="0.5"/>
<path d="M7.34642 28.5723L6.37128 29.231L8.71505 32.7934L9.69011 32.1347L7.34642 28.5723Z" fill="#383838" stroke="#383838" stroke-width="0.5"/>
<path d="M16.924 28.5833L14.5791 32.1455L15.5541 32.8046L17.8991 29.2423L16.924 28.5833Z" fill="#383838" stroke="#383838" stroke-width="0.5"/>
<path d="M23.0085 21.2835C22.929 21.2291 22.8377 21.1951 22.7424 21.1848C22.6471 21.1745 22.5507 21.188 22.4618 21.2242L20.0331 22.2086L19.75 18.8064L20.5891 8.65324C20.7003 7.35444 20.4218 6.05181 19.7901 4.91609C19.1585 3.78036 18.203 2.86444 17.0488 2.2882L16.586 2.05486C15.2014 1.36097 13.6775 1 12.1328 1C10.5881 1 9.06428 1.36097 7.67971 2.05486L7.21739 2.2882C6.06287 2.86408 5.10696 3.77982 4.47479 4.91564C3.84262 6.05137 3.56386 7.35418 3.67483 8.65324L4.51567 18.8064L4.23441 22.211L1.80567 21.2265C1.71687 21.1902 1.6206 21.1764 1.5253 21.1864C1.43009 21.1964 1.33862 21.23 1.25918 21.2841C1.17965 21.3383 1.11446 21.4114 1.06921 21.497C1.02406 21.5826 1.00028 21.678 1.00001 21.7751V23.3462C0.998939 23.7025 1.10377 24.0509 1.30086 24.346C1.49796 24.641 1.77824 24.8691 2.1051 25.0004L3.94086 25.7444L3.69531 28.7001C3.58274 30.0632 3.89766 31.4276 4.5952 32.5986C5.29283 33.7696 6.33736 34.6877 7.58014 35.2218L9.5934 36.0928C10.3962 36.4385 11.2594 36.6166 12.1317 36.6166C13.0039 36.6166 13.8672 36.4385 14.67 36.0928L16.6832 35.2218C17.9264 34.688 18.9715 33.7702 19.6695 32.5991C20.3675 31.428 20.6828 30.0635 20.5704 28.7001L20.326 25.7444L22.1617 25.0004C22.4884 24.8689 22.7684 24.6407 22.9653 24.3457C23.1622 24.0507 23.2668 23.7023 23.2657 23.3462V21.7751C23.2657 21.6781 23.2423 21.5827 23.1974 21.4969C23.1526 21.4112 23.0876 21.3379 23.0085 21.2835ZM3.92973 24.4607L2.54044 23.8972C2.43142 23.8536 2.338 23.7777 2.27218 23.6794C2.20645 23.5811 2.17145 23.465 2.17189 23.3462V22.6521L3.92973 23.3646V24.4607ZM16.2238 34.1299L14.2106 35.0004C13.5535 35.2833 12.8469 35.4292 12.1328 35.4292C11.4188 35.4292 10.7122 35.2833 10.0551 35.0004L8.04184 34.1299C7.02617 33.693 6.17259 32.9425 5.6025 31.9853C5.0325 31.0279 4.7752 29.9128 4.8672 28.7986L5.68755 18.8064L4.84315 8.55171C4.75293 7.49035 4.98093 6.42605 5.4975 5.4982C6.01415 4.57034 6.79514 3.82222 7.73831 3.35161L8.20117 3.11827C9.42347 2.50551 10.7688 2.18667 12.1326 2.18667C13.4963 2.18667 14.8416 2.50551 16.0639 3.11827L16.5262 3.35161C17.4695 3.82213 18.2507 4.57026 18.7673 5.49811C19.284 6.42597 19.5121 7.49027 19.4219 8.55171L18.5781 18.8064L19.4032 28.8016C19.4942 29.9158 19.2359 31.0307 18.665 31.9875C18.0942 32.9442 17.2399 33.6939 16.2238 34.1299ZM22.0938 23.3462C22.0942 23.465 22.0592 23.5811 21.9935 23.6794C21.9277 23.7777 21.8343 23.8536 21.7253 23.8972L20.336 24.4607V23.3646L22.0938 22.6521V23.3462Z" fill="#383838" stroke="#383838" stroke-width="0.5"/>
<path d="M52.0837 19.394H41.6508L41.0824 25.1302C41.05 25.4529 41.1053 25.7783 41.2424 26.0713C41.3795 26.3644 41.593 26.6139 41.86 26.7928L42.0076 26.8919C43.4474 27.8636 45.1387 28.3822 46.8686 28.3822C48.5985 28.3822 50.2898 27.8636 51.7295 26.8919L51.878 26.7921C52.1443 26.6133 52.3581 26.3638 52.4952 26.0708C52.6324 25.7777 52.6876 25.4523 52.6546 25.1297L52.0837 19.394ZM51.2274 25.8024L51.0792 25.9021C49.8312 26.7445 48.3652 27.194 46.8656 27.194C45.3662 27.194 43.9001 26.7445 42.6522 25.9021L42.5045 25.803C42.4159 25.7432 42.3451 25.6601 42.2995 25.5626C42.254 25.4651 42.2355 25.3569 42.2461 25.2496L42.7085 20.5815H51.0259L51.4882 25.2502C51.4982 25.3575 51.4794 25.4656 51.4334 25.563C51.3874 25.6602 51.3163 25.743 51.2274 25.8024Z" fill="#383838" stroke="#383838" stroke-width="0.5"/>
<path d="M41.6824 12.2771H52.0496L52.5813 9.04529C52.641 8.68263 52.5885 8.31026 52.4308 7.97894C52.2741 7.64772 52.0193 7.37376 51.7025 7.19457L50.5664 6.5551C49.4361 5.9142 48.1626 5.57764 46.8673 5.57764C45.5722 5.57764 44.2986 5.9142 43.1683 6.5551L42.031 7.19457C41.7143 7.37376 41.4601 7.64763 41.3027 7.97877C41.1454 8.3099 41.0929 8.68209 41.1521 9.04467L41.6824 12.2771ZM42.6 8.23241L43.7361 7.59295C44.6926 7.05073 45.7703 6.766 46.8662 6.766C47.9622 6.766 49.0398 7.05073 49.9963 7.59295L51.1324 8.23241C51.2378 8.29244 51.3225 8.38392 51.375 8.49435C51.4273 8.60488 51.445 8.72903 51.4254 8.84998L51.0574 11.0895H42.675L42.3064 8.84936C42.2865 8.72841 42.304 8.60417 42.3566 8.49364C42.4091 8.3832 42.4942 8.292 42.6 8.23241Z" fill="#383838" stroke="#383838" stroke-width="0.5"/>
<path d="M42.08 28.5723L41.1049 29.231L43.4486 32.7934L44.4237 32.1347L42.08 28.5723Z" fill="#383838" stroke="#383838" stroke-width="0.5"/>
<path d="M51.6576 28.5833L49.3127 32.1455L50.2876 32.8046L52.6328 29.2423L51.6576 28.5833Z" fill="#383838" stroke="#383838" stroke-width="0.5"/>
<path d="M57.7423 21.2835C57.663 21.2291 57.5713 21.1951 57.476 21.1848C57.3807 21.1745 57.2845 21.188 57.1955 21.2242L54.7667 22.2086L54.4844 18.8064L55.3234 8.65324C55.4347 7.35444 55.1559 6.05181 54.5245 4.91609C53.8921 3.78036 52.9374 2.86444 51.7831 2.2882L51.32 2.05486C49.9354 1.36097 48.4116 1 46.8669 1C45.3222 1 43.7983 1.36097 42.4137 2.05486L41.9514 2.2882C40.7969 2.86408 39.841 3.77982 39.2088 4.91564C38.5766 6.05137 38.2979 7.35418 38.4088 8.65324L39.2497 18.8064L38.9684 22.211L36.5397 21.2265C36.4509 21.1902 36.3546 21.1764 36.2593 21.1864C36.1641 21.1964 36.0726 21.23 35.9932 21.2841C35.9137 21.3383 35.8485 21.4114 35.8032 21.497C35.7581 21.5826 35.7343 21.678 35.734 21.7751V23.3462C35.7329 23.7025 35.8378 24.0509 36.0349 24.346C36.232 24.641 36.5122 24.8691 36.8391 25.0004L38.6749 25.7444L38.4293 28.7001C38.3167 30.0632 38.6317 31.4276 39.3292 32.5986C40.0268 33.7696 41.0714 34.6877 42.3141 35.2218L44.3274 36.0928C45.1302 36.4385 45.9934 36.6166 46.8657 36.6166C47.7379 36.6166 48.6012 36.4385 49.404 36.0928L51.4172 35.2218C52.6604 34.688 53.7051 33.7702 54.4033 32.5991C55.1016 31.428 55.4169 30.0635 55.3047 28.7001L55.0597 25.7444L56.8962 25.0004C57.2222 24.8689 57.5027 24.6407 57.6996 24.3457C57.8964 24.0507 58.0006 23.7023 57.9997 23.3462V21.7751C57.9997 21.6781 57.9765 21.5827 57.9311 21.4969C57.8866 21.4112 57.8216 21.3379 57.7423 21.2835ZM38.6637 24.4607L37.2744 23.8972C37.1654 23.8536 37.072 23.7777 37.0062 23.6794C36.9405 23.5811 36.9055 23.465 36.9059 23.3462V22.6521L38.6637 23.3646V24.4607ZM50.9579 34.1299L48.9446 35.0004C48.2875 35.2833 47.5809 35.4292 46.8669 35.4292C46.1528 35.4292 45.4462 35.2833 44.7891 35.0004L42.7758 34.1299C41.7602 33.693 40.9066 32.9425 40.3365 31.9853C39.7665 31.0279 39.5092 29.9128 39.6012 28.7986L40.4216 18.8064L39.5772 8.55171C39.4869 7.49035 39.7149 6.42605 40.2315 5.4982C40.7482 4.57034 41.5292 3.82222 42.4723 3.35161L42.9352 3.11827C44.1575 2.50551 45.5029 2.18667 46.8666 2.18667C48.2303 2.18667 49.5756 2.50551 50.7979 3.11827L51.2602 3.35161C52.2035 3.82213 52.9846 4.57026 53.5011 5.49811C54.0177 6.42597 54.2466 7.49027 54.1557 8.55171L53.3123 18.8064L54.137 28.8016C54.2279 29.9158 53.9696 31.0307 53.3987 31.9875C52.8278 32.9442 51.9737 33.6939 50.9579 34.1299ZM56.8276 23.3462C56.8285 23.465 56.7929 23.5811 56.7279 23.6794C56.662 23.7777 56.5685 23.8536 56.4589 23.8972L55.0704 24.4607V23.3646L56.8276 22.6521V23.3462Z" fill="#383838" stroke="#383838" stroke-width="0.5"/>
<path d="M21.9024 16.5548C21.6415 16.8156 21.6415 17.2385 21.9024 17.4994L26.1533 21.7503C26.4141 22.0112 26.8371 22.0112 27.0979 21.7503C27.3588 21.4895 27.3588 21.0665 27.0979 20.8056L23.3194 17.0271L27.0979 13.2485C27.3588 12.9876 27.3588 12.5647 27.0979 12.3038C26.8371 12.0429 26.4141 12.0429 26.1533 12.3038L21.9024 16.5548ZM37.097 17.4994C37.3579 17.2385 37.3579 16.8156 37.097 16.5548L32.8461 12.3038C32.5853 12.0429 32.1623 12.0429 31.9015 12.3038C31.6406 12.5647 31.6406 12.9876 31.9015 13.2485L35.68 17.0271L31.9015 20.8056C31.6406 21.0665 31.6406 21.4895 31.9015 21.7503C32.1623 22.0112 32.5853 22.0112 32.8461 21.7503L37.097 17.4994ZM22.3747 17.695H36.6247V16.3591H22.3747V17.695Z" fill="#383838"/>
</svg>
